<svg width="24" height="25" viewBox="0 0 24 25" fill="none" xmlns="http://www.w3.org/2000/svg">
<g id="ant-design:linkedin-outlined">
<path id="Vector" d="M19.868 3.25586H4.13203C3.3 3.25586 2.625 3.93086 2.625 4.76289V20.4988C2.625 21.3309 3.3 22.0059 4.13203 22.0059H19.868C20.7 22.0059 21.375 21.3309 21.375 20.4988V4.76289C21.375 3.93086 20.7 3.25586 19.868 3.25586ZM19.868 20.5059C9.37266 20.5035 4.125 20.5012 4.125 20.4988C4.12734 10.0035 4.12969 4.75586 4.13203 4.75586C14.6273 4.7582 19.875 4.76055 19.875 4.76289C19.8727 15.2582 19.8703 20.5059 19.868 20.5059ZM5.40469 10.2848H8.18672V19.2332H5.40469V10.2848ZM6.79688 9.06133C7.68516 9.06133 8.40937 8.33945 8.40937 7.44883C8.40937 7.23707 8.36767 7.02739 8.28663 6.83175C8.2056 6.63611 8.08682 6.45835 7.93709 6.30862C7.78735 6.15888 7.60959 6.04011 7.41395 5.95907C7.21831 5.87804 7.00863 5.83633 6.79688 5.83633C6.58512 5.83633 6.37544 5.87804 6.1798 5.95907C5.98416 6.04011 5.8064 6.15888 5.65667 6.30862C5.50693 6.45835 5.38815 6.63611 5.30712 6.83175C5.22608 7.02739 5.18437 7.23707 5.18437 7.44883C5.18203 8.33945 5.90391 9.06133 6.79688 9.06133ZM12.7102 14.8059C12.7102 13.6387 12.9328 12.509 14.3789 12.509C15.8039 12.509 15.825 13.8426 15.825 14.8809V19.2332H18.6047V14.3254C18.6047 11.916 18.0844 10.0621 15.2695 10.0621C13.9172 10.0621 13.0102 10.8051 12.6375 11.5082H12.6V10.2848H9.93047V19.2332H12.7102V14.8059Z" fill="#1D1D1B"/>
</g>
</svg>
