<svg width="20" height="20" viewBox="0 0 20 20" fill="none" xmlns="http://www.w3.org/2000/svg">
<g id="X">
<path id="Vector" d="M10.8387 9.95489L10.7945 9.99912L10.8387 10.0433L16.026 15.2228C16.026 15.2228 16.0261 15.2229 16.0261 15.2229C16.1318 15.3297 16.1911 15.4739 16.1911 15.6241C16.1911 15.7742 16.1319 15.9182 16.0265 16.025C15.9187 16.1289 15.7748 16.187 15.6251 16.187C15.4753 16.187 15.3314 16.1289 15.2236 16.0249C15.2235 16.0248 15.2234 16.0246 15.2232 16.0245L10.0443 10.8378L10.0001 10.7935L9.95587 10.8378L4.77697 16.0245C4.77683 16.0246 4.7767 16.0248 4.77657 16.0249C4.66881 16.1289 4.52488 16.187 4.3751 16.187C4.22536 16.187 4.08148 16.1289 3.97372 16.025C3.86824 15.9182 3.80908 15.7742 3.80908 15.6241C3.80908 15.4739 3.86837 15.3297 3.97407 15.2229C3.97411 15.2229 3.97415 15.2228 3.97419 15.2228L9.16145 10.0433L9.20574 9.99912L9.16145 9.95489L3.97619 4.77745C3.88763 4.66837 3.84242 4.5304 3.84932 4.38999C3.85626 4.24858 3.91556 4.11481 4.01567 4.0147C4.11579 3.91458 4.24956 3.85529 4.39097 3.84834C4.53138 3.84145 4.66935 3.88665 4.77843 3.97522L9.95587 9.16047L10.0001 9.20476L10.0443 9.16047L15.2218 3.97522C15.3308 3.88665 15.4688 3.84145 15.6092 3.84834C15.7506 3.85529 15.8844 3.91458 15.9845 4.0147C16.0846 4.11481 16.1439 4.24858 16.1509 4.38999C16.1578 4.5304 16.1126 4.66837 16.024 4.77745L10.8387 9.95489Z" fill="white" stroke="white" stroke-width="0.125"/>
</g>
</svg>
