<svg width="147" height="44" viewBox="0 0 147 44" fill="none" xmlns="http://www.w3.org/2000/svg">
<g id="Group 1">
<g id="Layer_1_00000014629038355685321030000001912930481072240043_">
<g id="Group">
<path id="Vector" d="M70.8081 7.37654C70.8081 6.61272 71.4267 5.99414 72.1905 5.99414C72.9543 5.99414 73.5729 6.61272 73.5729 7.37654C73.5729 8.14036 72.9543 8.75895 72.1905 8.75895C71.4249 8.75895 70.8081 8.14036 70.8081 7.37654Z" fill="#445566" stroke="#445566" stroke-miterlimit="10" stroke-linecap="round" stroke-linejoin="round"/>
<path id="Vector_2" d="M97.4554 8.82227H95.0474V25.6065H97.4554V8.82227Z" fill="#445566" stroke="#445566" stroke-miterlimit="10" stroke-linecap="round" stroke-linejoin="round"/>
<path id="Vector_3" d="M86.5145 23.3545H91.3108V25.6048H75.683C74.2935 25.6048 73.0491 25.0525 72.1921 24.1686C71.3332 25.0543 70.0889 25.6048 68.6975 25.6048H28.9736V7.0293H31.3816V23.3545H68.6975C70.0494 23.3545 70.9854 22.4258 70.9854 21.2747V12.3509H73.3934V21.2747C73.3934 22.4258 74.3311 23.3545 75.6813 23.3545H81.7506C80.2713 22.9404 79.088 21.7552 79.088 18.7501C79.088 11.2375 86.2223 11.5136 90.0539 12.835V15.4223C87.3071 14.3035 81.5946 13.2671 81.5946 18.7501C81.5946 20.172 82.0374 21.2908 82.9196 22.1174C83.8053 22.944 84.9959 23.3545 86.5145 23.3545Z" fill="#445566" stroke="#445566" stroke-miterlimit="10" stroke-linecap="round" stroke-linejoin="round"/>
<path id="Vector_4" d="M99.1911 5.92506V7.22498H93.3154V5.92506H94.2209C93.8229 5.55929 93.6292 4.99629 93.6292 4.21095C93.6292 3.42203 93.9304 2.81062 94.5203 2.38926C95.6033 1.62007 97.3515 1.70613 98.5187 2.10956L98.6084 2.13645V3.61926L98.4291 3.54754C97.468 3.15308 96.082 3.00964 95.433 3.44713C95.1712 3.61926 95.0457 3.87208 95.0457 4.21095C95.0457 5.90354 97.1023 5.92506 97.1883 5.92506H99.1911Z" fill="#445566" stroke="#445566" stroke-miterlimit="10" stroke-linecap="round" stroke-linejoin="round"/>
<path id="Vector_5" d="M17.7134 29.5837C17.7134 30.4443 17.0159 31.1382 16.1589 31.1382C15.2964 31.1382 14.6025 30.4443 14.6025 29.5837C14.6025 28.7266 15.2964 28.0273 16.1589 28.0273C17.0159 28.0273 17.7134 28.7248 17.7134 29.5837Z" fill="#445566" stroke="#445566" stroke-miterlimit="10" stroke-linecap="round" stroke-linejoin="round"/>
<path id="Vector_6" d="M25.1778 12.3506V25.6026H8.61052C6.35493 25.6026 4.55296 24.9805 3.21 23.7361C1.86167 22.4972 1.1875 20.8315 1.1875 18.7498C1.1875 16.6807 1.86167 15.0186 3.21 13.7724C4.55475 12.5227 6.35493 11.9023 8.61052 11.9023V14.1382C7.09364 14.1382 5.9013 14.5524 5.01555 15.379C4.13519 16.2091 3.69232 17.3315 3.69232 18.748C3.69232 20.1699 4.13519 21.2887 5.01555 22.1153C5.9013 22.9418 7.09364 23.3524 8.61052 23.3524H22.7698V12.3488L25.1778 12.3506Z" fill="#445566" stroke="#445566" stroke-miterlimit="10" stroke-linecap="round" stroke-linejoin="round"/>
</g>
<g id="Group_2">
<path id="Vector_7" d="M21.8933 40.6872C21.8933 40.9471 21.8198 41.0709 21.6853 41.0709C20.7386 41.0709 20.1559 40.8934 19.9389 40.5294C19.4924 40.7481 19.0137 40.8521 18.5135 40.8521C17.192 40.8521 16.3296 40.1654 16.3296 38.991C16.3296 37.7018 17.2655 36.8376 18.8039 36.8376H20.5611V39.251C20.5611 40.0829 20.8426 40.3017 21.6835 40.3017C21.8197 40.3035 21.8933 40.4272 21.8933 40.6872ZM19.7094 37.6086H18.6479C17.764 37.6086 17.1615 38.0658 17.1615 38.8977C17.1615 39.6777 17.6403 40.0632 18.587 40.0632C19.0442 40.0632 19.4189 39.9807 19.7094 39.8032V37.6086ZM17.5452 35.1127C17.5452 34.8223 17.764 34.6035 18.0545 34.6035C18.3557 34.6035 18.5637 34.8223 18.5637 35.1127C18.5637 35.414 18.3557 35.6327 18.0545 35.6327C17.764 35.6327 17.5452 35.4157 17.5452 35.1127ZM19.0012 35.1127C19.0012 34.8223 19.2199 34.6035 19.5211 34.6035C19.8116 34.6035 20.0196 34.8223 20.0196 35.1127C20.0196 35.414 19.8116 35.6327 19.5211 35.6327C19.2199 35.6327 19.0012 35.4157 19.0012 35.1127Z" fill="#FF3425"/>
<path id="Vector_8" d="M25.2929 40.6876C25.2929 40.9476 25.2194 41.0713 25.0849 41.0713C24.2637 41.0713 23.7115 40.8328 23.421 40.3541C23.0983 40.8328 22.5371 41.0713 21.7356 41.0713H21.6836V40.3021H21.7571C22.5998 40.3021 22.9226 39.9059 22.9226 38.9197V36.8398H23.733V39.0542V39.117C23.733 39.9077 24.1794 40.3021 25.0849 40.3021C25.2194 40.3039 25.2929 40.4276 25.2929 40.6876ZM22.9746 42.4968C22.9746 42.7872 22.7666 43.006 22.4653 43.006C22.1749 43.006 21.9561 42.7872 21.9561 42.4968C21.9561 42.1955 22.1749 41.9768 22.4653 41.9768C22.7666 41.9768 22.9746 42.1955 22.9746 42.4968ZM24.4305 42.4968C24.4305 42.7872 24.2225 43.006 23.932 43.006C23.6308 43.006 23.412 42.7872 23.412 42.4968C23.412 42.1955 23.6308 41.9768 23.932 41.9768C24.2225 41.9768 24.4305 42.1955 24.4305 42.4968Z" fill="#FF3425"/>
<path id="Vector_9" d="M29.7432 37.3698C30.0767 37.7965 30.2416 38.3362 30.2416 38.9925C30.2416 39.6272 30.0964 40.3229 29.7952 41.0723H25.085V40.3031H26.3956C26.1052 39.9392 25.9582 39.4819 25.9582 38.9297C25.9582 38.295 26.1661 37.7643 26.5821 37.3483C26.9873 36.9323 27.5396 36.7243 28.2155 36.7243C28.9023 36.7243 29.4115 36.9431 29.7432 37.3698ZM29.2232 40.3031C29.3487 39.8244 29.4097 39.4084 29.4097 39.0444C29.4097 38.0977 28.9829 37.515 28.1402 37.515C27.2778 37.515 26.7883 38.1085 26.7883 38.9494C26.7883 39.4389 26.9658 39.8854 27.3083 40.3013H29.2232V40.3031ZM27.6956 34.9994C27.6956 34.709 27.9143 34.4902 28.2155 34.4902C28.506 34.4902 28.714 34.709 28.714 34.9994C28.714 35.1554 28.6728 35.2809 28.5795 35.3742C28.298 35.6844 27.6436 35.4674 27.6956 34.9994Z" fill="#FF3425"/>
<path id="Vector_10" d="M31.4395 41.0732V33.2109H32.2499V41.0732H31.4395Z" fill="#FF3425"/>
<path id="Vector_11" d="M36.4828 40.3041C36.6173 40.3041 36.6908 40.4296 36.6908 40.6896C36.6908 40.9496 36.6173 41.0733 36.4828 41.0733H35.0269V41.0428C34.8082 42.124 34.1214 42.7282 32.947 42.8627L32.7803 42.1132C33.8507 41.9465 34.2882 41.5 34.2882 40.4081V36.8418H35.0986V40.2324V40.3059H36.4828V40.3041Z" fill="#FF3425"/>
<path id="Vector_12" d="M40.0922 40.6872C40.0922 40.9471 40.0187 41.0709 39.8842 41.0709C39.063 41.0709 38.5108 40.8324 38.2203 40.3537C37.8976 40.8324 37.3364 41.0709 36.5349 41.0709H36.4829V40.3017H36.5564C37.3991 40.3017 37.7219 39.9054 37.7219 38.9193V36.8394H38.5323V39.0537V39.1165C38.5323 39.9072 38.9788 40.3017 39.8842 40.3017C40.0187 40.3035 40.0922 40.4272 40.0922 40.6872ZM36.8684 35.1127C36.8684 34.8223 37.0871 34.6035 37.3776 34.6035C37.6788 34.6035 37.8868 34.8223 37.8868 35.1127C37.8868 35.414 37.6788 35.6327 37.3776 35.6327C37.0854 35.6327 36.8684 35.4157 36.8684 35.1127ZM38.3225 35.1127C38.3225 34.8223 38.5413 34.6035 38.8425 34.6035C39.133 34.6035 39.341 34.8223 39.341 35.1127C39.341 35.414 39.133 35.6327 38.8425 35.6327C38.5413 35.6327 38.3225 35.4157 38.3225 35.1127Z" fill="#FF3425"/>
<path id="Vector_13" d="M39.8823 41.0728V40.3036H43.5006C43.6871 39.4089 43.6261 37.5173 41.5355 37.5173C41.2127 37.5173 40.838 37.58 40.422 37.7037L40.2355 36.9758C40.682 36.809 41.1607 36.7266 41.6699 36.7266C42.8246 36.7266 43.6153 37.121 44.0313 37.9225C44.4473 38.7222 44.4885 39.7729 44.1568 41.0728H39.8823Z" fill="#FF3425"/>
<path id="Vector_14" d="M50.074 33.2109H50.8845V39.1494C50.8845 40.356 50.178 41.0732 48.8566 41.0732H45.1021V40.304H47.2752V35.3536H48.0856V40.304H48.7616C49.667 40.304 50.0722 39.9185 50.0722 38.9216V33.2109H50.074Z" fill="#FF3425"/>
<path id="Vector_15" d="M52.2378 41.0732V33.2109H53.0482V41.0732H52.2378Z" fill="#FF3425"/>
<path id="Vector_16" d="M63.5519 40.3034C63.6864 40.3034 63.7599 40.4289 63.7599 40.6889C63.7599 40.9489 63.6864 41.0726 63.5519 41.0726H58.8506C58.1442 41.0726 57.7587 41.3954 57.7587 42.0086C57.7587 42.663 58.1962 42.9858 59.0802 42.9858C59.2469 42.9858 59.4226 42.9642 59.6109 42.9338L59.7669 43.6922C59.5284 43.7442 59.2577 43.7747 58.9762 43.7747C57.7587 43.7747 56.9268 43.1095 56.9268 42.0175C56.9268 40.9776 57.6332 40.3016 58.7574 40.3016H61.4828C61.5348 40.0937 61.5653 39.8552 61.5653 39.5952C61.5653 38.3365 60.8678 37.5153 59.5266 37.5153C59.2039 37.5153 58.8291 37.5781 58.4132 37.7018L58.2267 36.9738C58.6731 36.8071 59.1519 36.7246 59.6521 36.7246C61.4415 36.7246 62.356 37.8166 62.356 39.5325C62.356 39.7512 62.3344 40.0004 62.304 40.3016H63.5519V40.3034ZM59.6521 42.3726C59.0389 42.4353 59.0389 41.3954 59.6521 41.4474C60.2348 41.3954 60.2348 42.4335 59.6521 42.3726Z" fill="#FF3425"/>
<path id="Vector_17" d="M66.6825 36.7246C67.328 36.7246 67.8372 36.9326 68.2012 37.3486C68.5651 37.7646 68.7426 38.2845 68.7426 38.9192C68.7426 40.1779 68.0147 41.0726 66.34 41.0726H63.5537V40.3034H64.8841C64.5829 39.8982 64.4377 39.441 64.4377 38.921C64.4377 38.2756 64.6564 37.7466 65.0831 37.3414C65.5099 36.9362 66.0388 36.7246 66.6825 36.7246ZM66.4225 40.3034C67.4732 40.3034 67.9089 39.7315 67.9089 38.9103C67.9089 38.0676 67.3889 37.5171 66.5982 37.5171C65.8075 37.5171 65.2678 38.0371 65.2678 38.9103C65.2678 39.398 65.4543 39.8677 65.8183 40.3034H66.4225Z" fill="#FF3425"/>
<path id="Vector_18" d="M69.8862 41.0732V33.2109H70.6967V41.0732H69.8862Z" fill="#FF3425"/>
<path id="Vector_19" d="M74.9286 40.3041C75.0631 40.3041 75.1366 40.4296 75.1366 40.6896C75.1366 40.9496 75.0631 41.0733 74.9286 41.0733H73.4727V41.0428C73.254 42.124 72.5672 42.7282 71.3928 42.8627L71.2261 42.1132C72.2965 41.9465 72.734 41.5 72.734 40.4081V36.8418H73.5444V40.2324V40.3059H74.9286V40.3041Z" fill="#FF3425"/>
<path id="Vector_20" d="M78.5484 40.6876C78.5484 40.9476 78.4749 41.0713 78.3405 41.0713C77.5193 41.0713 76.967 40.8328 76.6766 40.3541C76.3538 40.8328 75.7711 41.0713 74.9302 41.0713V40.3021C75.8356 40.3021 76.1781 39.9274 76.1781 38.9197V36.8398H76.9885V39.0542V39.117C76.9885 39.9077 77.435 40.3021 78.3405 40.3021C78.4749 40.3039 78.5484 40.4276 78.5484 40.6876ZM76.967 42.4968C76.967 42.7872 76.759 43.006 76.4686 43.006C76.1673 43.006 75.9486 42.7872 75.9486 42.4968C75.9486 42.3408 76.0006 42.2152 76.0938 42.122C76.3951 41.8118 77.019 42.0288 76.967 42.4968Z" fill="#FF3425"/>
<path id="Vector_21" d="M81.8959 40.6877C81.8959 40.9477 81.8223 41.0714 81.6879 41.0714C80.8971 41.0714 80.3467 40.8419 80.0455 40.3955C79.7443 40.8419 79.183 41.0714 78.3403 41.0714V40.3023C78.8191 40.3023 79.1418 40.209 79.2978 40.0118C79.4538 39.8146 79.5273 39.4506 79.5273 38.9198V33.2109H80.3377V39.1171C80.3377 39.9078 80.7842 40.3023 81.6897 40.3023C81.8241 40.304 81.8959 40.4278 81.8959 40.6877Z" fill="#FF3425"/>
<path id="Vector_22" d="M81.688 40.3042C82.1667 40.3042 82.4895 40.211 82.6455 40.0137C82.8014 39.8165 82.8749 39.4525 82.8749 38.9218V33.2129H83.6854V39.275C83.6854 40.471 83.0202 41.0734 81.688 41.0734V40.3042Z" fill="#FF3425"/>
</g>
</g>
<g id="Group_3">
<path id="Vector_23" d="M132.574 27.377C134.222 27.377 135.558 28.7127 135.558 30.3623C135.558 32.0101 134.222 33.3458 132.574 33.3458C130.927 33.3458 129.591 32.0101 129.591 30.3623C129.591 28.7127 130.927 27.377 132.574 27.377Z" fill="url(#paint0_linear_332_3777)"/>
<path id="Vector_24" d="M132.574 16.375C134.222 16.375 135.558 17.7108 135.558 19.3586C135.558 21.0063 134.222 22.3421 132.574 22.3421C130.927 22.3421 129.591 21.0063 129.591 19.3586C129.591 17.7108 130.927 16.375 132.574 16.375Z" fill="url(#paint1_linear_332_3777)"/>
<path id="Vector_25" d="M137.709 10.5078C139.445 10.5078 140.851 11.9135 140.851 13.6491C140.851 15.3848 139.443 16.7905 137.709 16.7905C135.974 16.7905 134.568 15.3848 134.568 13.6491C134.568 11.9153 135.974 10.5078 137.709 10.5078Z" fill="url(#paint2_linear_332_3777)"/>
<path id="Vector_26" d="M137.709 21.2617C139.445 21.2617 140.851 22.6674 140.851 24.4031C140.851 26.1387 139.443 27.5444 137.709 27.5444C135.974 27.5444 134.568 26.1387 134.568 24.4031C134.568 22.6692 135.974 21.2617 137.709 21.2617Z" fill="url(#paint3_linear_332_3777)"/>
<path id="Vector_27" d="M132.574 5.37109C134.222 5.37109 135.558 6.70688 135.558 8.35464C135.558 10.0024 134.222 11.3382 132.574 11.3382C130.927 11.3382 129.591 10.0024 129.591 8.35464C129.591 6.70688 130.927 5.37109 132.574 5.37109Z" fill="url(#paint4_linear_332_3777)"/>
<path id="Vector_28" d="M126.96 32.3203C128.525 32.3203 129.795 33.5898 129.795 35.1568C129.795 36.7221 128.525 37.9916 126.96 37.9916C125.395 37.9916 124.125 36.7239 124.125 35.1568C124.125 33.5898 125.395 32.3203 126.96 32.3203Z" fill="url(#paint5_linear_332_3777)"/>
<path id="Vector_29" d="M126.96 21.5684C128.525 21.5684 129.795 22.8378 129.795 24.4031C129.795 25.9684 128.525 27.2378 126.96 27.2378C125.395 27.2378 124.125 25.9684 124.125 24.4031C124.125 22.8378 125.395 21.5684 126.96 21.5684Z" fill="url(#paint6_linear_332_3777)"/>
<path id="Vector_30" d="M126.96 10.8145C128.525 10.8145 129.795 12.0839 129.795 13.6492C129.795 15.2145 128.525 16.4839 126.96 16.4839C125.395 16.4839 124.125 15.2145 124.125 13.6492C124.125 12.0839 125.395 10.8145 126.96 10.8145Z" fill="url(#paint7_linear_332_3777)"/>
<path id="Vector_31" d="M115.727 22.9141C116.55 22.9141 117.215 23.5811 117.215 24.4023C117.215 25.2252 116.548 25.8904 115.727 25.8904C114.904 25.8904 114.239 25.2252 114.239 24.4023C114.239 23.5811 114.906 22.9141 115.727 22.9141Z" fill="url(#paint8_linear_332_3777)"/>
<path id="Vector_32" d="M115.727 12.1621C116.55 12.1621 117.215 12.8291 117.215 13.6503C117.215 14.4733 116.548 15.1385 115.727 15.1385C114.904 15.1385 114.239 14.4733 114.239 13.6503C114.239 12.8291 114.906 12.1621 115.727 12.1621Z" fill="url(#paint9_linear_332_3777)"/>
<path id="Vector_33" d="M109.805 18.3594C110.357 18.3594 110.804 18.8058 110.804 19.3581C110.804 19.9103 110.357 20.3568 109.805 20.3568C109.253 20.3568 108.806 19.9103 108.806 19.3581C108.806 18.8058 109.253 18.3594 109.805 18.3594Z" fill="url(#paint10_linear_332_3777)"/>
<path id="Vector_34" d="M121.621 27.8965C122.982 27.8965 124.086 29.001 124.086 30.3619C124.086 31.7227 122.983 32.8272 121.621 32.8272C120.26 32.8272 119.155 31.7227 119.155 30.3619C119.155 28.9992 120.26 27.8965 121.621 27.8965Z" fill="url(#paint11_linear_332_3777)"/>
<path id="Vector_35" d="M121.621 16.8926C122.982 16.8926 124.086 17.9971 124.086 19.358C124.086 20.7188 122.983 21.8233 121.621 21.8233C120.26 21.8233 119.155 20.7188 119.155 19.358C119.155 17.9971 120.26 16.8926 121.621 16.8926Z" fill="url(#paint12_linear_332_3777)"/>
<path id="Vector_36" d="M121.621 5.89062C122.982 5.89062 124.086 6.99511 124.086 8.356C124.086 9.71689 122.983 10.8214 121.621 10.8214C120.26 10.8214 119.155 9.71689 119.155 8.356C119.155 6.99332 120.26 5.89062 121.621 5.89062Z" fill="url(#paint13_linear_332_3777)"/>
<path id="Vector_37" d="M126.96 0.0625C128.525 0.0625 129.795 1.33194 129.795 2.89723C129.795 4.46252 128.525 5.73196 126.96 5.73196C125.395 5.73196 124.125 4.46252 124.125 2.89723C124.125 1.33194 125.395 0.0625 126.96 0.0625Z" fill="url(#paint14_linear_332_3777)"/>
<path id="Vector_38" d="M143.651 16.0527C145.478 16.0527 146.959 17.5338 146.959 19.359C146.959 21.1843 145.478 22.6653 143.651 22.6653C141.389 22.6653 140.214 20.3721 138.791 19.359C140.216 18.3442 141.389 16.0527 143.651 16.0527Z" fill="url(#paint15_linear_332_3777)"/>
</g>
</g>
<defs>
<linearGradient id="paint0_linear_332_3777" x1="104.328" y1="30.3614" x2="146.381" y2="30.3614" gradientUnits="userSpaceOnUse">
<stop stop-color="#FF7D7D"/>
<stop offset="0.1532" stop-color="#FF706E"/>
<stop offset="0.722" stop-color="#FF4539"/>
<stop offset="1" stop-color="#FF3425"/>
</linearGradient>
<linearGradient id="paint1_linear_332_3777" x1="104.328" y1="19.3585" x2="146.381" y2="19.3585" gradientUnits="userSpaceOnUse">
<stop stop-color="#FF7D7D"/>
<stop offset="0.1532" stop-color="#FF706E"/>
<stop offset="0.722" stop-color="#FF4539"/>
<stop offset="1" stop-color="#FF3425"/>
</linearGradient>
<linearGradient id="paint2_linear_332_3777" x1="104.328" y1="13.6491" x2="146.381" y2="13.6491" gradientUnits="userSpaceOnUse">
<stop stop-color="#FF7D7D"/>
<stop offset="0.1532" stop-color="#FF706E"/>
<stop offset="0.722" stop-color="#FF4539"/>
<stop offset="1" stop-color="#FF3425"/>
</linearGradient>
<linearGradient id="paint3_linear_332_3777" x1="104.328" y1="24.4031" x2="146.381" y2="24.4031" gradientUnits="userSpaceOnUse">
<stop stop-color="#FF7D7D"/>
<stop offset="0.1532" stop-color="#FF706E"/>
<stop offset="0.722" stop-color="#FF4539"/>
<stop offset="1" stop-color="#FF3425"/>
</linearGradient>
<linearGradient id="paint4_linear_332_3777" x1="104.328" y1="8.35464" x2="146.381" y2="8.35464" gradientUnits="userSpaceOnUse">
<stop stop-color="#FF7D7D"/>
<stop offset="0.1532" stop-color="#FF706E"/>
<stop offset="0.722" stop-color="#FF4539"/>
<stop offset="1" stop-color="#FF3425"/>
</linearGradient>
<linearGradient id="paint5_linear_332_3777" x1="124.125" y1="35.1559" x2="129.795" y2="35.1559" gradientUnits="userSpaceOnUse">
<stop stop-color="#FF7D7D"/>
<stop offset="0.1532" stop-color="#FF706E"/>
<stop offset="0.722" stop-color="#FF4539"/>
<stop offset="1" stop-color="#FF3425"/>
</linearGradient>
<linearGradient id="paint6_linear_332_3777" x1="104.328" y1="24.4031" x2="146.381" y2="24.4031" gradientUnits="userSpaceOnUse">
<stop stop-color="#FF7D7D"/>
<stop offset="0.1532" stop-color="#FF706E"/>
<stop offset="0.722" stop-color="#FF4539"/>
<stop offset="1" stop-color="#FF3425"/>
</linearGradient>
<linearGradient id="paint7_linear_332_3777" x1="104.328" y1="13.6492" x2="146.381" y2="13.6492" gradientUnits="userSpaceOnUse">
<stop stop-color="#FF7D7D"/>
<stop offset="0.1532" stop-color="#FF706E"/>
<stop offset="0.722" stop-color="#FF4539"/>
<stop offset="1" stop-color="#FF3425"/>
</linearGradient>
<linearGradient id="paint8_linear_332_3777" x1="104.327" y1="24.4023" x2="146.381" y2="24.4023" gradientUnits="userSpaceOnUse">
<stop stop-color="#FF7D7D"/>
<stop offset="0.1532" stop-color="#FF706E"/>
<stop offset="0.722" stop-color="#FF4539"/>
<stop offset="1" stop-color="#FF3425"/>
</linearGradient>
<linearGradient id="paint9_linear_332_3777" x1="104.327" y1="13.6503" x2="146.381" y2="13.6503" gradientUnits="userSpaceOnUse">
<stop stop-color="#FF7D7D"/>
<stop offset="0.1532" stop-color="#FF706E"/>
<stop offset="0.722" stop-color="#FF4539"/>
<stop offset="1" stop-color="#FF3425"/>
</linearGradient>
<linearGradient id="paint10_linear_332_3777" x1="104.328" y1="19.3581" x2="146.381" y2="19.3581" gradientUnits="userSpaceOnUse">
<stop stop-color="#FF7D7D"/>
<stop offset="0.1532" stop-color="#FF706E"/>
<stop offset="0.722" stop-color="#FF4539"/>
<stop offset="1" stop-color="#FF3425"/>
</linearGradient>
<linearGradient id="paint11_linear_332_3777" x1="104.328" y1="30.3619" x2="146.381" y2="30.3619" gradientUnits="userSpaceOnUse">
<stop stop-color="#FF7D7D"/>
<stop offset="0.1532" stop-color="#FF706E"/>
<stop offset="0.722" stop-color="#FF4539"/>
<stop offset="1" stop-color="#FF3425"/>
</linearGradient>
<linearGradient id="paint12_linear_332_3777" x1="104.328" y1="19.358" x2="146.381" y2="19.358" gradientUnits="userSpaceOnUse">
<stop stop-color="#FF7D7D"/>
<stop offset="0.1532" stop-color="#FF706E"/>
<stop offset="0.722" stop-color="#FF4539"/>
<stop offset="1" stop-color="#FF3425"/>
</linearGradient>
<linearGradient id="paint13_linear_332_3777" x1="104.328" y1="8.356" x2="146.381" y2="8.356" gradientUnits="userSpaceOnUse">
<stop stop-color="#FF7D7D"/>
<stop offset="0.1532" stop-color="#FF706E"/>
<stop offset="0.722" stop-color="#FF4539"/>
<stop offset="1" stop-color="#FF3425"/>
</linearGradient>
<linearGradient id="paint14_linear_332_3777" x1="104.328" y1="2.89723" x2="146.381" y2="2.89723" gradientUnits="userSpaceOnUse">
<stop stop-color="#FF7D7D"/>
<stop offset="0.1532" stop-color="#FF706E"/>
<stop offset="0.722" stop-color="#FF4539"/>
<stop offset="1" stop-color="#FF3425"/>
</linearGradient>
<linearGradient id="paint15_linear_332_3777" x1="104.328" y1="19.359" x2="146.381" y2="19.359" gradientUnits="userSpaceOnUse">
<stop stop-color="#FF7D7D"/>
<stop offset="0.1532" stop-color="#FF706E"/>
<stop offset="0.722" stop-color="#FF4539"/>
<stop offset="1" stop-color="#FF3425"/>
</linearGradient>
</defs>
</svg>
