<svg width="63" height="50" viewBox="0 0 63 50" fill="none" xmlns="http://www.w3.org/2000/svg">
<g id="Logo">
<g id="Group">
<g id="Group_2">
<g id="Group_3">
<g id="Group_4">
<path id="Vector" d="M1.36197 44.6925C2.09698 44.6925 2.55285 45.0842 2.55285 45.754C2.55285 46.4237 2.09135 46.8154 1.36197 46.8154H0.514395V48.488H0V44.6914H1.36197V44.6925ZM1.21226 46.3652C1.74354 46.3652 2.00581 46.1614 2.00581 45.754C2.00581 45.3465 1.74354 45.1428 1.21226 45.1428H0.51552V46.3652H1.21226Z" fill="#FF3425"/>
<path id="Vector_2" d="M4.52554 45.9164L4.50415 46.4364C4.41298 46.4094 4.33306 46.3992 4.26328 46.3992C3.79165 46.3992 3.53952 46.6784 3.53952 47.1928V48.4906H3.05664V45.949H3.53952V46.3407H3.55078C3.67909 46.0672 3.99088 45.8848 4.31168 45.8848C4.40285 45.8837 4.47151 45.895 4.52554 45.9164Z" fill="#FF3425"/>
<path id="Vector_3" d="M7.12763 46.2633C7.38989 46.5154 7.52497 46.8373 7.52497 47.2178C7.52497 47.5881 7.39665 47.9044 7.13326 48.161C6.871 48.4233 6.5547 48.5527 6.17313 48.5527C5.80281 48.5527 5.48089 48.4244 5.21863 48.1666C4.95636 47.9089 4.82129 47.5926 4.82129 47.2178C4.82129 46.8474 4.94961 46.5312 5.213 46.2689C5.47526 46.0111 5.79268 45.8828 6.17313 45.8828C6.54345 45.8828 6.85974 46.0111 7.12763 46.2633ZM6.17313 48.1025C6.67177 48.1025 7.00944 47.749 7.00944 47.2178C7.00944 46.682 6.66614 46.3331 6.1675 46.3331C5.67449 46.3331 5.33681 46.6977 5.33681 47.2178C5.33681 47.749 5.67449 48.1025 6.17313 48.1025Z" fill="#FF3425"/>
<path id="Vector_4" d="M9.54655 44.4082L9.49252 44.8371C9.4171 44.8044 9.32593 44.7887 9.219 44.7887C8.92409 44.7887 8.80591 44.9339 8.80591 45.3357V45.9469H9.37996V46.3645H8.8014V48.4885H8.31852V46.3656H7.77148V45.9481H8.31852V45.3582C8.31852 44.6773 8.58641 44.3711 9.18748 44.3711C9.32143 44.3711 9.44412 44.3812 9.54655 44.4082Z" fill="#FF3425"/>
<path id="Vector_5" d="M12.3185 47.2614V47.3953H10.2811C10.2811 47.6103 10.3667 47.787 10.5389 47.9266C10.7111 48.0662 10.9092 48.136 11.1389 48.136C11.3966 48.136 11.6262 48.0076 11.8356 47.7555L12.2003 48.0346C11.9268 48.3836 11.5519 48.5547 11.0747 48.5547C10.6942 48.5547 10.3779 48.4309 10.1359 48.1844C9.88944 47.9435 9.76562 47.6216 9.76562 47.2197C9.76562 46.8393 9.88944 46.523 10.1359 46.2652C10.3824 46.0131 10.6987 45.8848 11.0792 45.8848C11.8356 45.8836 12.3185 46.3879 12.3185 47.2614ZM11.803 47.0104C11.7872 46.5387 11.5193 46.2708 11.0679 46.2708C10.8316 46.2708 10.6447 46.3508 10.4995 46.5072C10.3543 46.6682 10.28 46.8348 10.28 47.0115H11.803V47.0104Z" fill="#FF3425"/>
<path id="Vector_6" d="M14.6241 46.3024L14.2493 46.5871C14.1041 46.4206 13.933 46.335 13.7293 46.335C13.4884 46.335 13.306 46.4532 13.306 46.6187C13.306 46.7954 13.4726 46.9136 13.8047 46.9834C14.4316 47.1072 14.695 47.3053 14.695 47.7555C14.695 48.0178 14.5926 48.217 14.3945 48.351C14.1964 48.4849 13.9499 48.5547 13.6595 48.5547C13.225 48.5547 12.8986 48.405 12.6836 48.1044L13.0483 47.8039C13.2464 48.002 13.4501 48.1044 13.6651 48.1044C13.9488 48.1044 14.1795 47.9806 14.1795 47.7825C14.1795 47.6159 14.0185 47.4932 13.6966 47.4178C13.0584 47.2895 12.7905 47.1015 12.7905 46.6671C12.7905 46.4206 12.8873 46.227 13.0798 46.0885C13.2678 45.9546 13.4929 45.8848 13.7552 45.8848C14.1694 45.8836 14.4587 46.0232 14.6241 46.3024Z" fill="#FF3425"/>
<path id="Vector_7" d="M17.005 46.3024L16.6302 46.5871C16.485 46.4206 16.3139 46.335 16.1101 46.335C15.8693 46.335 15.6869 46.4532 15.6869 46.6187C15.6869 46.7954 15.8535 46.9136 16.1855 46.9834C16.8125 47.1072 17.0759 47.3053 17.0759 47.7555C17.0759 48.0178 16.9735 48.217 16.7754 48.351C16.5773 48.4849 16.3307 48.5547 16.0403 48.5547C15.6059 48.5547 15.2794 48.405 15.0645 48.1044L15.4291 47.8039C15.6273 48.002 15.831 48.1044 16.046 48.1044C16.3296 48.1044 16.5604 47.9806 16.5604 47.7825C16.5604 47.6159 16.3994 47.4932 16.0775 47.4178C15.4393 47.2895 15.1714 47.1015 15.1714 46.6671C15.1714 46.4206 15.2682 46.227 15.4607 46.0885C15.6486 45.9546 15.8738 45.8848 16.136 45.8848C16.5491 45.8836 16.8384 46.0232 17.005 46.3024Z" fill="#FF3425"/>
<path id="Vector_8" d="M18.2918 45.0354C18.2918 45.2278 18.1309 45.3888 17.9384 45.3888C17.7403 45.3888 17.585 45.2335 17.585 45.0354C17.585 44.9386 17.6221 44.853 17.6919 44.7832C17.89 44.5581 18.3087 44.7359 18.2918 45.0354ZM18.1793 45.9471V48.4887H17.6964V45.9471H18.1793Z" fill="#FF3425"/>
<path id="Vector_9" d="M21.1296 46.2633C21.3918 46.5154 21.5269 46.8373 21.5269 47.2178C21.5269 47.5881 21.3986 47.9044 21.1352 48.161C20.8729 48.4233 20.5567 48.5527 20.1751 48.5527C19.8048 48.5527 19.4828 48.4244 19.2206 48.1666C18.9583 47.9089 18.8232 47.5926 18.8232 47.2178C18.8232 46.8474 18.9516 46.5312 19.215 46.2689C19.4772 46.0111 19.7946 45.8828 20.1751 45.8828C20.5443 45.8828 20.8606 46.0111 21.1296 46.2633ZM20.1751 48.1025C20.6737 48.1025 21.0114 47.749 21.0114 47.2178C21.0114 46.682 20.6681 46.3331 20.1695 46.3331C19.6764 46.3331 19.3388 46.6977 19.3388 47.2178C19.3376 47.749 19.6764 48.1025 20.1751 48.1025Z" fill="#FF3425"/>
<path id="Vector_10" d="M24.3842 46.8317V48.4886H23.9013V46.9713C23.9013 46.5796 23.6863 46.3331 23.3227 46.3331C22.8781 46.3331 22.6147 46.6437 22.6147 47.1592V48.4886H22.1318V45.947H22.6147V46.3387H22.626C22.7599 46.0595 23.092 45.8828 23.4623 45.8828C24.0251 45.8828 24.3842 46.2531 24.3842 46.8317Z" fill="#FF3425"/>
<path id="Vector_11" d="M26.9319 46.1293C27.1086 46.2959 27.1941 46.4884 27.1941 46.7135V48.0755C27.1941 48.2308 27.1998 48.3704 27.2155 48.4886H26.7867C26.7754 48.3602 26.7709 48.2308 26.7709 48.1025H26.7597C26.5616 48.403 26.261 48.5527 25.8693 48.5527C25.3549 48.5527 24.9902 48.2578 24.9902 47.7918C24.9902 47.2504 25.4348 46.9127 26.3848 46.9127H26.7439V46.8216C26.7439 46.4839 26.4974 46.2689 26.1327 46.2689C25.8536 46.2689 25.6926 46.3387 25.4146 46.5582L25.1253 46.2576C25.3988 46.0055 25.7309 45.8828 26.1338 45.8828C26.4861 45.8828 26.7552 45.9639 26.9319 46.1293ZM26.0202 48.1666C26.4648 48.1666 26.7439 47.8931 26.7439 47.4057V47.2662H26.4704C25.8052 47.2662 25.4731 47.4271 25.4731 47.7535C25.4731 48.0282 25.6555 48.1666 26.0202 48.1666Z" fill="#FF3425"/>
<path id="Vector_12" d="M28.4174 44.4355V48.4899H27.9346V44.4355H28.4174Z" fill="#FF3425"/>
<path id="Vector_13" d="M32.0638 44.6934C32.7234 44.6934 33.2591 44.9297 33.5653 45.2944C33.8715 45.6591 34.0313 46.115 34.0313 46.5922C34.0313 47.1393 33.8388 47.5895 33.4572 47.9486C33.0712 48.3076 32.5781 48.49 31.9827 48.49H30.7119V44.6934H32.0638ZM31.9028 48.0071C32.2832 48.0071 32.6423 47.9002 32.9586 47.6852C33.2749 47.4713 33.4843 47.0796 33.4843 46.5911C33.4843 46.1994 33.3616 45.8617 33.1094 45.5882C32.8573 45.3147 32.4982 45.1751 32.0266 45.1751H31.2274V48.006H31.9028V48.0071Z" fill="#FF3425"/>
<path id="Vector_14" d="M37.0509 47.2614V47.3953H35.0136C35.0136 47.6103 35.0991 47.787 35.2713 47.9266C35.4435 48.0662 35.6416 48.136 35.8713 48.136C36.129 48.136 36.3587 48.0076 36.568 47.7555L36.9327 48.0346C36.6592 48.3836 36.2844 48.5547 35.8071 48.5547C35.4267 48.5547 35.1104 48.4309 34.8684 48.1844C34.6219 47.9435 34.498 47.6216 34.498 47.2197C34.498 46.8393 34.6219 46.523 34.8684 46.2652C35.1149 46.0131 35.4312 45.8848 35.8116 45.8848C36.568 45.8836 37.0509 46.3879 37.0509 47.2614ZM36.5365 47.0104C36.5207 46.5387 36.2528 46.2708 35.8015 46.2708C35.5651 46.2708 35.3783 46.3508 35.2331 46.5072C35.0879 46.6682 35.0136 46.8348 35.0136 47.0115H36.5365V47.0104Z" fill="#FF3425"/>
<path id="Vector_15" d="M37.8825 45.9473L38.6434 47.8934L39.3728 45.9473H39.8872L38.8899 48.4889H38.3586L37.3242 45.9473H37.8825Z" fill="#FF3425"/>
<path id="Vector_16" d="M42.714 47.2614V47.3953H40.6767C40.6767 47.6103 40.7622 47.787 40.9344 47.9266C41.1066 48.0662 41.3047 48.136 41.5344 48.136C41.7921 48.136 42.0217 48.0076 42.2311 47.7555L42.5958 48.0346C42.3223 48.3836 41.9475 48.5547 41.4702 48.5547C41.0897 48.5547 40.7735 48.4309 40.5315 48.1844C40.2849 47.9435 40.1611 47.6216 40.1611 47.2197C40.1611 46.8393 40.2849 46.523 40.5315 46.2652C40.778 46.0131 41.0942 45.8848 41.4747 45.8848C42.2322 45.8836 42.714 46.3879 42.714 47.2614ZM42.1996 47.0104C42.1838 46.5387 41.9159 46.2708 41.4646 46.2708C41.2282 46.2708 41.0413 46.3508 40.8961 46.5072C40.7509 46.6682 40.6767 46.8348 40.6767 47.0115H42.1996V47.0104Z" fill="#FF3425"/>
<path id="Vector_17" d="M43.8139 44.4355V48.4899H43.3311V44.4355H43.8139Z" fill="#FF3425"/>
<path id="Vector_18" d="M46.7643 46.2633C47.0266 46.5154 47.1617 46.8373 47.1617 47.2178C47.1617 47.5881 47.0334 47.9044 46.77 48.161C46.5077 48.4233 46.1903 48.5527 45.8098 48.5527C45.4395 48.5527 45.1176 48.4244 44.8553 48.1666C44.5931 47.9089 44.458 47.5926 44.458 47.2178C44.458 46.8474 44.5863 46.5312 44.8497 46.2689C45.112 46.0111 45.4294 45.8828 45.8098 45.8828C46.179 45.8828 46.4953 46.0111 46.7643 46.2633ZM45.8098 48.1025C46.3085 48.1025 46.6462 47.749 46.6462 47.2178C46.6462 46.682 46.3029 46.3331 45.8042 46.3331C45.3112 46.3331 44.9735 46.6977 44.9735 47.2178C44.9724 47.749 45.3112 48.1025 45.8098 48.1025Z" fill="#FF3425"/>
<path id="Vector_19" d="M50.0776 46.2531C50.3185 46.4996 50.4367 46.8216 50.4367 47.2178C50.4367 47.6095 50.3185 47.9314 50.0776 48.1779C49.8367 48.43 49.5249 48.5527 49.1445 48.5527C48.7742 48.5527 48.4264 48.3816 48.2598 48.1239H48.2485V50.0002H47.7656V45.947H48.2485V46.3117H48.2598C48.4522 46.0381 48.7854 45.8828 49.1501 45.8828C49.5249 45.8828 49.8367 46.0066 50.0776 46.2531ZM48.2485 47.2178C48.2485 47.48 48.3239 47.695 48.4792 47.856C48.6346 48.0226 48.8327 48.1025 49.0848 48.1025C49.5947 48.1025 49.9211 47.7535 49.9211 47.2178C49.9211 46.682 49.5778 46.3331 49.0792 46.3331C48.8327 46.3331 48.6346 46.413 48.4781 46.5739C48.3239 46.7405 48.2485 46.9555 48.2485 47.2178Z" fill="#FF3425"/>
<path id="Vector_20" d="M53.1129 46.3544C53.2683 46.0595 53.5789 45.8828 53.9177 45.8828C54.5616 45.8828 54.8824 46.2531 54.8824 46.987V48.4886H54.3995V47.0467C54.3995 46.5537 54.2228 46.3331 53.8525 46.3331C53.4236 46.3331 53.2041 46.6066 53.2041 47.0782V48.4886H52.7212V47.121C52.7212 46.5424 52.5546 46.3331 52.1854 46.3331C51.7937 46.3331 51.5258 46.6606 51.5258 47.148V48.4886H51.043V45.947H51.4932V46.3443H51.5033C51.6103 46.0922 51.9536 45.8828 52.3183 45.8828C52.683 45.8828 52.9463 46.0381 53.1129 46.3544Z" fill="#FF3425"/>
<path id="Vector_21" d="M58.0138 47.2614V47.3953H55.9765C55.9765 47.6103 56.062 47.787 56.2342 47.9266C56.4064 48.0662 56.6045 48.136 56.8342 48.136C57.0919 48.136 57.3215 48.0076 57.5309 47.7555L57.8956 48.0346C57.6221 48.3836 57.2473 48.5547 56.77 48.5547C56.3896 48.5547 56.0733 48.4309 55.8313 48.1844C55.5848 47.9435 55.4609 47.6216 55.4609 47.2197C55.4609 46.8393 55.5848 46.523 55.8313 46.2652C56.0778 46.0131 56.3941 45.8848 56.7745 45.8848C57.532 45.8836 58.0138 46.3879 58.0138 47.2614ZM57.4994 47.0104C57.4836 46.5387 57.2157 46.2708 56.7644 46.2708C56.528 46.2708 56.3411 46.3508 56.1959 46.5072C56.0507 46.6682 55.9765 46.8348 55.9765 47.0115H57.4994V47.0104Z" fill="#FF3425"/>
<path id="Vector_22" d="M60.8461 46.8317V48.4886H60.3632V46.9713C60.3632 46.5796 60.1482 46.3331 59.7846 46.3331C59.34 46.3331 59.0766 46.6437 59.0766 47.1592V48.4886H58.5938V45.947H59.0766V46.3387H59.0879C59.2218 46.0595 59.5539 45.8828 59.9242 45.8828C60.487 45.8828 60.8461 46.2531 60.8461 46.8317Z" fill="#FF3425"/>
<path id="Vector_23" d="M62.2461 45.2344V45.948H62.9383V46.3656H62.2461V47.588C62.2461 47.9471 62.326 48.1024 62.6108 48.1024C62.756 48.1024 62.8731 48.0754 62.9541 48.027V48.4671C62.8573 48.5256 62.7132 48.5526 62.514 48.5526C62.0694 48.5369 61.8814 48.4029 61.8173 48.1564C61.7632 47.9842 61.7632 47.9155 61.7632 47.7219V46.3656H61.2061V45.948H61.7632V45.2344H62.2461Z" fill="#FF3425"/>
</g>
</g>
</g>
<g id="Group_5">
<g id="Group_6">
<path id="Vector_24" d="M10.9912 27.8945L15.7243 38.9557H13.9752L12.8664 36.2217H7.60204L6.50796 38.9557H4.75879L9.63261 27.8945H10.9912ZM8.13219 34.9092H12.3194L10.2573 29.8317H10.2258L8.13219 34.9092Z" fill="#1D1D1B" stroke="#1D1D1B" stroke-width="0.5" stroke-miterlimit="10" stroke-linecap="round" stroke-linejoin="round"/>
<path id="Vector_25" d="M22.0985 32.0814C22.614 32.5654 22.8639 33.1282 22.8639 33.7844V37.7522C22.8639 38.2058 22.8797 38.611 22.9258 38.9554H21.6764C21.6449 38.5806 21.6291 38.2058 21.6291 37.8309H21.5976C21.019 38.7055 20.1445 39.1434 19.0042 39.1434C17.5049 39.1434 16.4424 38.2846 16.4424 36.9248C16.4424 35.3468 17.7391 34.363 20.5047 34.363H21.5515V34.0974C21.5515 33.1136 20.8333 32.4878 19.7708 32.4878C18.9581 32.4878 18.4898 32.6904 17.6772 33.3319L16.8341 32.4574C17.631 31.7235 18.599 31.3633 19.7708 31.3633C20.8018 31.3622 21.583 31.5974 22.0985 32.0814ZM19.4432 38.0178C20.7399 38.0178 21.5526 37.2209 21.5526 35.7993V35.3929H20.7557C18.8185 35.3929 17.8494 35.8612 17.8494 36.8145C17.8494 37.6115 18.3807 38.0178 19.4432 38.0178Z" fill="#1D1D1B" stroke="#1D1D1B" stroke-width="0.5" stroke-miterlimit="10" stroke-linecap="round" stroke-linejoin="round"/>
<path id="Vector_26" d="M31.4712 34.128V38.9557H30.0654V34.5344C30.0654 33.3942 29.4407 32.6749 28.3781 32.6749C27.0814 32.6749 26.316 33.581 26.316 35.0803V38.9546H24.9102V31.5493H26.316V32.6895H26.3475C26.7381 31.8768 27.7073 31.3613 28.7845 31.3613C30.4256 31.3625 31.4712 32.4408 31.4712 34.128Z" fill="#1D1D1B" stroke="#1D1D1B" stroke-width="0.5" stroke-miterlimit="10" stroke-linecap="round" stroke-linejoin="round"/>
<path id="Vector_27" d="M38.8924 32.0814C39.408 32.5654 39.6578 33.1282 39.6578 33.7844V37.7522C39.6578 38.2058 39.6736 38.611 39.7197 38.9554H38.4703C38.4388 38.5806 38.4231 38.2058 38.4231 37.8309H38.3915C37.813 38.7055 36.9384 39.1434 35.7982 39.1434C34.2989 39.1434 33.2363 38.2846 33.2363 36.9248C33.2363 35.3468 34.533 34.363 37.2986 34.363H38.3454V34.0974C38.3454 33.1136 37.6273 32.4878 36.5647 32.4878C35.752 32.4878 35.2838 32.6904 34.4711 33.3319L33.628 32.4574C34.425 31.7235 35.393 31.3633 36.5647 31.3633C37.5958 31.3622 38.3769 31.5974 38.8924 32.0814ZM36.236 38.0178C37.5327 38.0178 38.3454 37.2209 38.3454 35.7993V35.3929H37.5485C35.6113 35.3929 34.6422 35.8612 34.6422 36.8145C34.6433 37.6115 35.1746 38.0178 36.236 38.0178Z" fill="#1D1D1B" stroke="#1D1D1B" stroke-width="0.5" stroke-miterlimit="10" stroke-linecap="round" stroke-linejoin="round"/>
<path id="Vector_28" d="M46.9997 32.0814C47.5152 32.5654 47.7651 33.1282 47.7651 33.7844V37.7522C47.7651 38.2058 47.7809 38.611 47.8281 38.9554H46.5787C46.5472 38.5806 46.5315 38.2058 46.5315 37.8309H46.4999C45.9214 38.7055 45.0468 39.1434 43.9066 39.1434C42.4073 39.1434 41.3447 38.2846 41.3447 36.9248C41.3447 35.3468 42.6414 34.363 45.407 34.363H46.4538V34.0974C46.4538 33.1136 45.7357 32.4878 44.6731 32.4878C43.8604 32.4878 43.3922 32.6904 42.5795 33.3319L41.7353 32.4574C42.5322 31.7235 43.5002 31.3633 44.672 31.3633C45.703 31.3622 46.4842 31.5974 46.9997 32.0814ZM44.3433 38.0178C45.64 38.0178 46.4527 37.2209 46.4527 35.7993V35.3929H45.6557C43.7186 35.3929 42.7495 35.8612 42.7495 36.8145C42.7506 37.6115 43.2819 38.0178 44.3433 38.0178Z" fill="#1D1D1B" stroke="#1D1D1B" stroke-width="0.5" stroke-miterlimit="10" stroke-linecap="round" stroke-linejoin="round"/>
<path id="Vector_29" d="M51.2174 27.1445V32.6127H51.2489C51.7487 31.8473 52.7797 31.3633 53.8265 31.3633C54.9352 31.3633 55.8413 31.7223 56.5448 32.4416C57.2483 33.1755 57.5916 34.1131 57.5916 35.2533C57.5916 36.362 57.2483 37.2996 56.5606 38.0347C55.8728 38.7685 54.9667 39.1434 53.8423 39.1434C52.7955 39.1434 51.7959 38.6909 51.2489 37.894H51.2174V38.9565H49.8115V27.1445H51.2174ZM51.2174 35.2522C51.2174 36.0176 51.4358 36.6423 51.8894 37.1117C52.343 37.5957 52.9204 37.8298 53.6543 37.8298C55.1074 37.8298 56.0912 36.7672 56.0912 35.2522C56.0912 33.6899 55.0917 32.6746 53.6385 32.6746C52.9204 32.6746 52.3419 32.9087 51.8894 33.3781C51.4358 33.8621 51.2174 34.4868 51.2174 35.2522Z" fill="#1D1D1B" stroke="#1D1D1B" stroke-width="0.5" stroke-miterlimit="10" stroke-linecap="round" stroke-linejoin="round"/>
</g>
</g>
<g id="Group_7">
<path id="Vector_30" d="M34.1503 17.1465C35.1848 17.1465 36.0233 17.9851 36.0233 19.0206C36.0233 20.055 35.1848 20.8936 34.1503 20.8936C33.1159 20.8936 32.2773 20.055 32.2773 19.0206C32.2773 17.9851 33.1159 17.1465 34.1503 17.1465Z" fill="url(#paint0_linear_412_24986)"/>
<path id="Vector_31" d="M34.1503 10.2402C35.1848 10.2402 36.0233 11.0788 36.0233 12.1132C36.0233 13.1476 35.1848 13.9862 34.1503 13.9862C33.1159 13.9862 32.2773 13.1476 32.2773 12.1132C32.2773 11.0788 33.1159 10.2402 34.1503 10.2402Z" fill="url(#paint1_linear_412_24986)"/>
<path id="Vector_32" d="M37.3744 6.55859C38.464 6.55859 39.3464 7.44106 39.3464 8.53063C39.3464 9.62021 38.4628 10.5027 37.3744 10.5027C36.2848 10.5027 35.4023 9.62021 35.4023 8.53063C35.4023 7.44218 36.2848 6.55859 37.3744 6.55859Z" fill="url(#paint2_linear_412_24986)"/>
<path id="Vector_33" d="M37.3744 13.3086C38.464 13.3086 39.3464 14.1911 39.3464 15.2806C39.3464 16.3702 38.4628 17.2527 37.3744 17.2527C36.2848 17.2527 35.4023 16.3702 35.4023 15.2806C35.4023 14.1922 36.2848 13.3086 37.3744 13.3086Z" fill="url(#paint3_linear_412_24986)"/>
<path id="Vector_34" d="M34.1503 3.33203C35.1848 3.33203 36.0233 4.1706 36.0233 5.20502C36.0233 6.23944 35.1848 7.07801 34.1503 7.07801C33.1159 7.07801 32.2773 6.23944 32.2773 5.20502C32.2773 4.1706 33.1159 3.33203 34.1503 3.33203Z" fill="url(#paint4_linear_412_24986)"/>
<path id="Vector_35" d="M30.6262 20.25C31.6089 20.25 32.4058 21.0469 32.4058 22.0307C32.4058 23.0133 31.6089 23.8103 30.6262 23.8103C29.6436 23.8103 28.8467 23.0145 28.8467 22.0307C28.8467 21.0469 29.6436 20.25 30.6262 20.25Z" fill="url(#paint5_linear_412_24986)"/>
<path id="Vector_36" d="M30.6262 13.5C31.6089 13.5 32.4058 14.2969 32.4058 15.2796C32.4058 16.2622 31.6089 17.0591 30.6262 17.0591C29.6436 17.0591 28.8467 16.2622 28.8467 15.2796C28.8467 14.2969 29.6436 13.5 30.6262 13.5Z" fill="url(#paint6_linear_412_24986)"/>
<path id="Vector_37" d="M30.6262 6.75C31.6089 6.75 32.4058 7.54692 32.4058 8.52956C32.4058 9.51221 31.6089 10.3091 30.6262 10.3091C29.6436 10.3091 28.8467 9.51221 28.8467 8.52956C28.8467 7.54692 29.6436 6.75 30.6262 6.75Z" fill="url(#paint7_linear_412_24986)"/>
<path id="Vector_38" d="M23.5739 14.3457C24.0905 14.3457 24.5081 14.7644 24.5081 15.2799C24.5081 15.7966 24.0894 16.2142 23.5739 16.2142C23.0572 16.2142 22.6396 15.7966 22.6396 15.2799C22.6396 14.7644 23.0584 14.3457 23.5739 14.3457Z" fill="url(#paint8_linear_412_24986)"/>
<path id="Vector_39" d="M23.5739 7.5957C24.0905 7.5957 24.5081 8.01442 24.5081 8.52994C24.5081 9.04659 24.0894 9.46419 23.5739 9.46419C23.0572 9.46419 22.6396 9.04659 22.6396 8.52994C22.6396 8.01442 23.0584 7.5957 23.5739 7.5957Z" fill="url(#paint9_linear_412_24986)"/>
<path id="Vector_40" d="M19.8564 11.4863C20.2031 11.4863 20.4834 11.7666 20.4834 12.1133C20.4834 12.46 20.2031 12.7402 19.8564 12.7402C19.5098 12.7402 19.2295 12.46 19.2295 12.1133C19.2295 11.7666 19.5098 11.4863 19.8564 11.4863Z" fill="url(#paint10_linear_412_24986)"/>
<path id="Vector_41" d="M27.2743 17.4746C28.1286 17.4746 28.8219 18.168 28.8219 19.0223C28.8219 19.8766 28.1297 20.57 27.2743 20.57C26.4199 20.57 25.7266 19.8766 25.7266 19.0223C25.7266 18.1668 26.4199 17.4746 27.2743 17.4746Z" fill="url(#paint11_linear_412_24986)"/>
<path id="Vector_42" d="M27.2743 10.5664C28.1286 10.5664 28.8219 11.2598 28.8219 12.1141C28.8219 12.9684 28.1297 13.6618 27.2743 13.6618C26.4199 13.6618 25.7266 12.9684 25.7266 12.1141C25.7266 11.2598 26.4199 10.5664 27.2743 10.5664Z" fill="url(#paint12_linear_412_24986)"/>
<path id="Vector_43" d="M27.2743 3.66016C28.1286 3.66016 28.8219 4.35352 28.8219 5.20785C28.8219 6.06217 28.1297 6.75554 27.2743 6.75554C26.4199 6.75554 25.7266 6.06217 25.7266 5.20785C25.7266 4.3524 26.4199 3.66016 27.2743 3.66016Z" fill="url(#paint13_linear_412_24986)"/>
<path id="Vector_44" d="M30.6262 0C31.6089 0 32.4058 0.79692 32.4058 1.77956C32.4058 2.76221 31.6089 3.55913 30.6262 3.55913C29.6436 3.55913 28.8467 2.76221 28.8467 1.77956C28.8467 0.79692 29.6436 0 30.6262 0Z" fill="url(#paint14_linear_412_24986)"/>
<path id="Vector_45" d="M41.1042 10.0371C42.2512 10.0371 43.1809 10.9669 43.1809 12.1127C43.1809 13.2586 42.2512 14.1883 41.1042 14.1883C39.6837 14.1883 38.9465 12.7487 38.0527 12.1127C38.9476 11.4756 39.6837 10.0371 41.1042 10.0371Z" fill="url(#paint15_linear_412_24986)"/>
</g>
</g>
</g>
<defs>
<linearGradient id="paint0_linear_412_24986" x1="16.418" y1="19.02" x2="42.8179" y2="19.02" gradientUnits="userSpaceOnUse">
<stop stop-color="#FF7D7D"/>
<stop offset="0.1532" stop-color="#FF706E"/>
<stop offset="0.722" stop-color="#FF4539"/>
<stop offset="1" stop-color="#FF3425"/>
</linearGradient>
<linearGradient id="paint1_linear_412_24986" x1="16.418" y1="12.1132" x2="42.8179" y2="12.1132" gradientUnits="userSpaceOnUse">
<stop stop-color="#FF7D7D"/>
<stop offset="0.1532" stop-color="#FF706E"/>
<stop offset="0.722" stop-color="#FF4539"/>
<stop offset="1" stop-color="#FF3425"/>
</linearGradient>
<linearGradient id="paint2_linear_412_24986" x1="16.4183" y1="8.53063" x2="42.8183" y2="8.53063" gradientUnits="userSpaceOnUse">
<stop stop-color="#FF7D7D"/>
<stop offset="0.1532" stop-color="#FF706E"/>
<stop offset="0.722" stop-color="#FF4539"/>
<stop offset="1" stop-color="#FF3425"/>
</linearGradient>
<linearGradient id="paint3_linear_412_24986" x1="16.4183" y1="15.2806" x2="42.8183" y2="15.2806" gradientUnits="userSpaceOnUse">
<stop stop-color="#FF7D7D"/>
<stop offset="0.1532" stop-color="#FF706E"/>
<stop offset="0.722" stop-color="#FF4539"/>
<stop offset="1" stop-color="#FF3425"/>
</linearGradient>
<linearGradient id="paint4_linear_412_24986" x1="16.418" y1="5.20502" x2="42.8179" y2="5.20502" gradientUnits="userSpaceOnUse">
<stop stop-color="#FF7D7D"/>
<stop offset="0.1532" stop-color="#FF706E"/>
<stop offset="0.722" stop-color="#FF4539"/>
<stop offset="1" stop-color="#FF3425"/>
</linearGradient>
<linearGradient id="paint5_linear_412_24986" x1="28.8467" y1="22.0301" x2="32.4058" y2="22.0301" gradientUnits="userSpaceOnUse">
<stop stop-color="#FF7D7D"/>
<stop offset="0.1532" stop-color="#FF706E"/>
<stop offset="0.722" stop-color="#FF4539"/>
<stop offset="1" stop-color="#FF3425"/>
</linearGradient>
<linearGradient id="paint6_linear_412_24986" x1="16.4181" y1="15.2796" x2="42.8181" y2="15.2796" gradientUnits="userSpaceOnUse">
<stop stop-color="#FF7D7D"/>
<stop offset="0.1532" stop-color="#FF706E"/>
<stop offset="0.722" stop-color="#FF4539"/>
<stop offset="1" stop-color="#FF3425"/>
</linearGradient>
<linearGradient id="paint7_linear_412_24986" x1="16.4181" y1="8.52956" x2="42.8181" y2="8.52956" gradientUnits="userSpaceOnUse">
<stop stop-color="#FF7D7D"/>
<stop offset="0.1532" stop-color="#FF706E"/>
<stop offset="0.722" stop-color="#FF4539"/>
<stop offset="1" stop-color="#FF3425"/>
</linearGradient>
<linearGradient id="paint8_linear_412_24986" x1="16.4176" y1="15.2799" x2="42.8176" y2="15.2799" gradientUnits="userSpaceOnUse">
<stop stop-color="#FF7D7D"/>
<stop offset="0.1532" stop-color="#FF706E"/>
<stop offset="0.722" stop-color="#FF4539"/>
<stop offset="1" stop-color="#FF3425"/>
</linearGradient>
<linearGradient id="paint9_linear_412_24986" x1="16.4176" y1="8.52995" x2="42.8176" y2="8.52995" gradientUnits="userSpaceOnUse">
<stop stop-color="#FF7D7D"/>
<stop offset="0.1532" stop-color="#FF706E"/>
<stop offset="0.722" stop-color="#FF4539"/>
<stop offset="1" stop-color="#FF3425"/>
</linearGradient>
<linearGradient id="paint10_linear_412_24986" x1="16.418" y1="12.1133" x2="42.818" y2="12.1133" gradientUnits="userSpaceOnUse">
<stop stop-color="#FF7D7D"/>
<stop offset="0.1532" stop-color="#FF706E"/>
<stop offset="0.722" stop-color="#FF4539"/>
<stop offset="1" stop-color="#FF3425"/>
</linearGradient>
<linearGradient id="paint11_linear_412_24986" x1="16.4181" y1="19.0223" x2="42.8181" y2="19.0223" gradientUnits="userSpaceOnUse">
<stop stop-color="#FF7D7D"/>
<stop offset="0.1532" stop-color="#FF706E"/>
<stop offset="0.722" stop-color="#FF4539"/>
<stop offset="1" stop-color="#FF3425"/>
</linearGradient>
<linearGradient id="paint12_linear_412_24986" x1="16.4181" y1="12.1141" x2="42.8181" y2="12.1141" gradientUnits="userSpaceOnUse">
<stop stop-color="#FF7D7D"/>
<stop offset="0.1532" stop-color="#FF706E"/>
<stop offset="0.722" stop-color="#FF4539"/>
<stop offset="1" stop-color="#FF3425"/>
</linearGradient>
<linearGradient id="paint13_linear_412_24986" x1="16.4181" y1="5.20785" x2="42.8181" y2="5.20785" gradientUnits="userSpaceOnUse">
<stop stop-color="#FF7D7D"/>
<stop offset="0.1532" stop-color="#FF706E"/>
<stop offset="0.722" stop-color="#FF4539"/>
<stop offset="1" stop-color="#FF3425"/>
</linearGradient>
<linearGradient id="paint14_linear_412_24986" x1="16.4181" y1="1.77956" x2="42.8181" y2="1.77956" gradientUnits="userSpaceOnUse">
<stop stop-color="#FF7D7D"/>
<stop offset="0.1532" stop-color="#FF706E"/>
<stop offset="0.722" stop-color="#FF4539"/>
<stop offset="1" stop-color="#FF3425"/>
</linearGradient>
<linearGradient id="paint15_linear_412_24986" x1="16.4179" y1="12.1127" x2="42.8179" y2="12.1127" gradientUnits="userSpaceOnUse">
<stop stop-color="#FF7D7D"/>
<stop offset="0.1532" stop-color="#FF706E"/>
<stop offset="0.722" stop-color="#FF4539"/>
<stop offset="1" stop-color="#FF3425"/>
</linearGradient>
</defs>
</svg>
