<svg width="130" height="129" viewBox="0 0 130 129" fill="none" xmlns="http://www.w3.org/2000/svg">
<g id="Group">
<path id="Vector" d="M20.4424 98.4815L20.4173 98.5096L20.9579 99.2297C20.9609 99.2337 20.9639 99.2367 20.9669 99.2417L21.7993 100.35L21.8264 100.319C27.4668 107.155 35.6884 111.053 44.6071 111.053C53.5258 111.053 61.7478 107.155 67.3879 100.319L67.4149 100.35L68.2564 99.2297L68.7969 98.5096L68.7719 98.4815C70.2632 96.3664 71.4556 94.0979 72.3352 91.7151L85.3248 95.5C85.1162 96.4868 85.0039 97.5088 85.0039 98.5547C85.0039 101.487 85.8513 104.282 87.4509 106.699L87.4268 106.727L87.9614 107.438C87.9624 107.441 87.9654 107.444 87.9674 107.447L88.8108 108.568L88.863 108.507C91.6671 111.608 95.5814 113.374 99.8218 113.374C104.059 113.374 107.975 111.606 110.782 108.507L110.834 108.57L111.671 107.455C111.672 107.454 111.674 107.452 111.675 107.449L112.216 106.729L112.191 106.701C113.79 104.279 114.64 101.486 114.64 98.5567C114.64 90.3851 107.993 83.7388 99.8198 83.7388C93.4844 83.7388 88.078 87.7435 85.9637 93.3497L73.0283 89.5797C73.7654 86.9771 74.1666 84.2693 74.1666 81.4934C74.1666 72.7231 70.3054 64.8573 64.2188 59.4377L77.419 48.9254C80.9713 52.2789 85.6196 54.1776 90.6191 54.1776C96.2864 54.1776 101.508 51.7485 105.182 47.5102L105.234 47.5734L106.072 46.4592C106.073 46.4582 106.075 46.4562 106.076 46.4532L106.616 45.7331L106.591 45.705C108.775 42.4988 109.937 38.774 109.937 34.8618C109.937 24.209 101.27 15.543 90.6182 15.543C79.9685 15.543 71.3024 24.2101 71.3024 34.8618C71.3024 38.775 72.4658 42.5009 74.648 45.705L74.624 45.7331L75.1585 46.4441C75.1595 46.4472 75.1615 46.4502 75.1645 46.4532L75.8204 47.3267L62.4418 57.9794C57.4775 54.2025 51.3057 51.9319 44.6003 51.9319C28.3003 51.9319 15.0391 65.1921 15.0391 81.4931C15.0441 87.6398 16.9205 93.4868 20.4417 98.4823L20.4424 98.4815ZM99.8193 111.127C96.1649 111.127 92.7851 109.591 90.3972 106.88C90.4072 106.873 90.4132 106.864 90.4252 106.855C90.4924 106.804 90.5777 106.754 90.6489 106.702C90.8675 106.547 91.0952 106.39 91.3499 106.238C91.4743 106.165 91.6107 106.093 91.741 106.02C91.9687 105.895 92.1973 105.769 92.4401 105.647C92.5895 105.572 92.7439 105.499 92.8984 105.427C93.1381 105.313 93.3788 105.202 93.6245 105.094C93.783 105.024 93.9424 104.957 94.1009 104.89C94.3496 104.787 94.5963 104.684 94.842 104.589C94.9935 104.529 95.1429 104.471 95.2913 104.414C95.544 104.317 95.7898 104.228 96.0294 104.143C96.1568 104.098 96.2872 104.05 96.4086 104.008C96.6633 103.92 96.8979 103.842 97.1246 103.769C97.2129 103.741 97.3102 103.706 97.3924 103.681C97.6873 103.586 97.955 103.505 98.1727 103.444L98.987 103.212V99.8294L98.271 99.5496C96.2481 98.7603 94.8892 96.5539 94.8892 94.0607C94.8892 90.8694 97.1015 88.274 99.8194 88.274C102.537 88.274 104.75 90.8694 104.75 94.0607C104.75 96.5539 103.39 98.7593 101.367 99.5496L100.651 99.8294V103.212L101.465 103.444C101.683 103.505 101.948 103.587 102.245 103.681C102.33 103.708 102.428 103.742 102.516 103.771C102.74 103.844 102.972 103.92 103.224 104.007C103.352 104.051 103.486 104.102 103.618 104.148C103.853 104.232 104.093 104.318 104.341 104.413C104.493 104.47 104.645 104.531 104.801 104.591C105.043 104.687 105.287 104.786 105.535 104.889C105.693 104.956 105.856 105.023 106.014 105.095C106.26 105.201 106.501 105.313 106.739 105.428C106.895 105.5 107.048 105.573 107.198 105.646C107.444 105.769 107.675 105.896 107.906 106.023C108.033 106.094 108.164 106.163 108.285 106.235C108.555 106.393 108.795 106.557 109.023 106.721C109.083 106.764 109.154 106.807 109.21 106.849C109.222 106.858 109.23 106.868 109.242 106.877C106.852 109.591 103.474 111.127 99.8194 111.127L99.8193 111.127ZM99.8193 85.9833C106.752 85.9833 112.393 91.6237 112.393 98.5547C112.393 100.88 111.768 103.111 110.575 105.071C110.383 104.925 110.168 104.786 109.958 104.646C109.873 104.592 109.802 104.534 109.717 104.482C109.367 104.261 108.997 104.049 108.615 103.847C108.521 103.798 108.424 103.753 108.33 103.704C108.035 103.552 107.737 103.406 107.435 103.266C107.289 103.199 107.147 103.138 106.999 103.072C106.743 102.959 106.493 102.85 106.241 102.745C106.087 102.682 105.941 102.622 105.791 102.562C105.547 102.466 105.314 102.375 105.081 102.289C104.943 102.236 104.808 102.186 104.674 102.137C104.435 102.05 104.213 101.973 103.997 101.897C103.894 101.863 103.79 101.825 103.694 101.792C103.399 101.693 103.128 101.605 102.898 101.531V101.316C105.376 99.9989 106.996 97.1837 106.996 94.0628C106.996 89.6329 103.778 86.0296 99.8195 86.0296C95.861 86.0296 92.6428 89.6329 92.6428 94.0628C92.6428 97.1827 94.2605 99.9979 96.7386 101.316V101.531C96.5099 101.604 96.2371 101.692 95.9433 101.792C95.846 101.825 95.7377 101.862 95.6364 101.898C95.4208 101.972 95.2051 102.05 94.9684 102.135C94.831 102.184 94.6917 102.238 94.5472 102.293C94.3226 102.377 94.0949 102.465 93.8582 102.557C93.7028 102.62 93.5494 102.682 93.3899 102.748C93.1462 102.848 92.9035 102.954 92.6548 103.064C92.5023 103.131 92.3519 103.197 92.1995 103.267C91.9026 103.404 91.6128 103.549 91.3219 103.698C91.2246 103.749 91.1223 103.795 91.0251 103.847C90.642 104.051 90.2719 104.262 89.9209 104.484C89.8426 104.532 89.7775 104.583 89.7022 104.632C89.4836 104.778 89.262 104.92 89.0624 105.072C87.87 103.114 87.2461 100.885 87.2461 98.5557C87.2481 91.6237 92.8886 85.9833 99.8196 85.9833L99.8193 85.9833ZM90.6218 51.9316C85.5332 51.9316 80.8335 49.7363 77.5801 45.873C77.6463 45.8179 77.7105 45.7617 77.7807 45.7066C77.8529 45.6494 77.9241 45.5912 77.9993 45.5341C78.1176 45.4458 78.243 45.3575 78.3724 45.2703C78.4516 45.2151 78.5278 45.161 78.6101 45.1068C78.7495 45.0156 78.8959 44.9253 79.0443 44.836C79.1265 44.7869 79.2028 44.7368 79.287 44.6876C79.4595 44.5873 79.64 44.487 79.8215 44.3867C79.8877 44.3526 79.9489 44.3145 80.0151 44.2804C80.2648 44.147 80.5216 44.0157 80.7823 43.8863C80.8495 43.8532 80.9197 43.8221 80.9879 43.789C81.1845 43.6947 81.3821 43.6005 81.5806 43.5072C81.693 43.456 81.8053 43.4069 81.9186 43.3557C82.0761 43.2855 82.2365 43.2133 82.395 43.1431C82.5224 43.088 82.6477 43.0348 82.7751 42.9827C82.9205 42.9215 83.0639 42.8603 83.2114 42.8001C83.3427 42.746 83.4751 42.6938 83.6065 42.6417C83.7469 42.5845 83.8883 42.5293 84.0277 42.4742C84.1591 42.423 84.2895 42.3739 84.4188 42.3248C84.5532 42.2736 84.6886 42.2225 84.82 42.1733C84.9484 42.1252 85.0777 42.079 85.2051 42.0329C85.3325 41.9868 85.4578 41.9417 85.5842 41.8965C85.7086 41.8514 85.8339 41.8063 85.9553 41.7651C86.0746 41.725 86.19 41.6839 86.3043 41.6458C86.4196 41.6067 86.536 41.5666 86.6473 41.5305C86.7626 41.4914 86.8729 41.4552 86.9843 41.4191C87.0866 41.386 87.1909 41.3519 87.2871 41.3219C87.4035 41.2848 87.5118 41.2517 87.6211 41.2186C87.6973 41.1945 87.7766 41.1694 87.8488 41.1484C88.0243 41.0942 88.1887 41.0461 88.3342 41.0049L89.1485 40.7733V36.8107L88.4324 36.5309C85.6031 35.4267 83.7048 32.3589 83.7048 28.8959C83.7048 24.454 86.8078 20.8386 90.6227 20.8386C94.4387 20.8386 97.5416 24.454 97.5416 28.8959C97.5416 32.3599 95.6412 35.4287 92.814 36.5309L92.0979 36.8097V40.7723L92.9123 41.0039C93.0587 41.0461 93.2242 41.0942 93.3987 41.1474C93.4619 41.1664 93.5331 41.1895 93.6013 41.2105C93.7196 41.2476 93.8389 41.2837 93.9693 41.3259C94.0536 41.3529 94.1418 41.383 94.2301 41.4111C94.3544 41.4502 94.4788 41.4903 94.6092 41.5355C94.7065 41.5686 94.8118 41.6027 94.9131 41.6378C95.0414 41.6809 95.1738 41.726 95.3082 41.7722C95.4165 41.8093 95.5268 41.8504 95.6412 41.8885C95.7816 41.9376 95.923 41.9888 96.0664 42.0409C96.1757 42.0811 96.287 42.1222 96.4004 42.1633C96.5528 42.2205 96.7063 42.2786 96.8617 42.3368C96.974 42.3789 97.0854 42.422 97.1987 42.4652C97.3592 42.5283 97.5206 42.5925 97.6821 42.6567C97.7934 42.7018 97.9027 42.745 98.015 42.7901C98.1855 42.8603 98.358 42.9325 98.5305 43.0057C98.6328 43.0489 98.7361 43.091 98.8374 43.1361C99.028 43.2183 99.2165 43.3026 99.403 43.3858C99.4873 43.4229 99.5705 43.461 99.6548 43.4992C99.9035 43.6125 100.15 43.7308 100.393 43.8492C100.414 43.8582 100.433 43.8682 100.454 43.8793C100.724 44.0106 100.985 44.146 101.24 44.2834C101.277 44.3045 101.316 44.3255 101.353 44.3466C101.562 44.4599 101.769 44.5743 101.966 44.6906C102.04 44.7327 102.109 44.7778 102.181 44.819C102.337 44.9132 102.493 45.0095 102.64 45.1048C102.722 45.1569 102.796 45.2111 102.872 45.2632C103.002 45.3515 103.13 45.4418 103.249 45.531C103.325 45.5882 103.398 45.6464 103.468 45.7035C103.538 45.7587 103.602 45.8148 103.668 45.87C100.414 49.7342 95.7114 51.9314 90.6218 51.9314L90.6218 51.9316ZM73.5515 34.8593C73.5515 25.4451 81.2086 17.787 90.6208 17.787C100.035 17.787 107.693 25.4461 107.693 34.8593C107.693 38.1597 106.767 41.3159 105.004 44.0609C104.994 44.0539 104.98 44.0459 104.973 44.0369C104.636 43.7661 104.265 43.5033 103.875 43.2466C103.811 43.2065 103.75 43.1644 103.684 43.1222C103.296 42.8755 102.889 42.6358 102.467 42.4052C102.391 42.365 102.315 42.3239 102.239 42.2828C101.809 42.0521 101.371 41.8295 100.924 41.6179C100.867 41.5908 100.811 41.5657 100.754 41.5387C100.309 41.3301 99.8624 41.1315 99.4191 40.944C99.385 40.9289 99.3499 40.9129 99.3158 40.8988C98.8665 40.7103 98.4242 40.5338 97.993 40.3673C97.9118 40.3362 97.8325 40.3041 97.7523 40.273C97.3461 40.1186 96.962 39.9762 96.5919 39.8428C96.5037 39.8117 96.4215 39.7816 96.3342 39.7515C95.9812 39.6271 95.6472 39.5118 95.3443 39.4115C95.2751 39.3895 95.22 39.3714 95.1538 39.3483C94.8529 39.2491 94.5731 39.1598 94.3455 39.0876V38.3023C97.63 36.6636 99.7892 32.9839 99.7892 28.8912C99.7892 23.2108 95.6782 18.5874 90.6237 18.5874C85.57 18.5874 81.4593 23.2087 81.4593 28.8912C81.4593 32.9831 83.6176 36.6628 86.903 38.3023V39.0876C86.6653 39.1628 86.3725 39.2571 86.0526 39.3614C86.0094 39.3764 85.9713 39.3885 85.9272 39.4015C85.6053 39.5098 85.2503 39.6302 84.8702 39.7656C84.812 39.7866 84.7568 39.8057 84.6966 39.8287C84.3075 39.9681 83.8983 40.1176 83.4701 40.282C83.412 40.3041 83.3538 40.3272 83.2946 40.3512C82.8483 40.5237 82.39 40.7063 81.9226 40.9038C81.9016 40.9129 81.8825 40.9219 81.8615 40.9309C81.4052 41.1245 80.9438 41.3311 80.4835 41.5467C80.4343 41.5708 80.3832 41.5928 80.332 41.6169C79.8827 41.8295 79.4404 42.0541 79.0082 42.2848C78.933 42.3249 78.8588 42.3641 78.7846 42.4042C78.3624 42.6358 77.9552 42.8745 77.5671 43.1213C77.5029 43.1634 77.4397 43.2055 77.3755 43.2466C76.9844 43.5024 76.6133 43.7661 76.2793 44.0359C76.2693 44.0429 76.2573 44.0509 76.2483 44.06C74.4791 41.319 73.5514 38.1618 73.5514 34.8594L73.5515 34.8593ZM44.6039 108.806C36.2557 108.806 28.5606 105.114 23.3444 98.6417C23.3905 98.5986 23.4286 98.5535 23.4747 98.5104C23.6172 98.382 23.7746 98.2546 23.928 98.1252C24.1106 97.9728 24.2931 97.8193 24.4937 97.6699C24.6662 97.5415 24.8487 97.4142 25.0312 97.2868C25.2409 97.1414 25.4494 96.998 25.6721 96.8536C25.8697 96.7262 26.0753 96.6018 26.2799 96.4775C26.5085 96.3401 26.7392 96.2017 26.9779 96.0673C27.1955 95.9449 27.4151 95.8236 27.6388 95.7032C27.8825 95.5718 28.1282 95.4415 28.3799 95.3121C28.6086 95.1958 28.8423 95.0784 29.0759 94.9651C29.3307 94.8407 29.5884 94.7164 29.8472 94.595C30.0838 94.4837 30.3185 94.3764 30.5572 94.2681C30.821 94.1497 31.0857 94.0334 31.3475 93.9191C31.5822 93.8168 31.8158 93.7155 32.0525 93.6162C32.3173 93.5049 32.5831 93.3956 32.8448 93.2893C33.0735 93.195 33.3041 93.1017 33.5318 93.0125C33.7955 92.9092 34.0543 92.8069 34.3121 92.7086C34.5297 92.6263 34.7453 92.5421 34.9579 92.4629C35.2157 92.3666 35.4654 92.2753 35.7131 92.1841C35.9127 92.1119 36.1133 92.0387 36.3048 91.9695C36.5545 91.8792 36.7912 91.797 37.0269 91.7167C37.1964 91.6586 37.3709 91.5974 37.5334 91.5412C37.7701 91.46 37.9887 91.3868 38.2063 91.3166C38.3437 91.2714 38.4891 91.2223 38.6185 91.1792C38.8402 91.106 39.0407 91.0428 39.2353 90.9796C39.3296 90.9495 39.4349 90.9154 39.5211 90.8883C39.7207 90.8252 39.8862 90.773 40.0456 90.7249C40.0998 90.7088 40.171 90.6858 40.2211 90.6707C40.3796 90.6216 40.503 90.5855 40.6043 90.5554C40.6233 90.5494 40.6584 90.5393 40.6765 90.5333C40.7798 90.5022 40.843 90.4842 40.852 90.4822L41.6663 90.2505V84.9642L40.9503 84.6854C36.2878 82.8671 33.1548 77.8345 33.1548 72.1633C33.1548 64.8693 38.2907 58.937 44.6029 58.937C50.9152 58.937 56.051 64.869 56.051 72.1633C56.051 77.8347 52.918 82.8671 48.2556 84.6854L47.5395 84.9642V90.2505L48.3539 90.4822C48.3629 90.4832 48.4261 90.5032 48.5294 90.5333C48.5474 90.5373 48.5815 90.5494 48.6016 90.5554C48.7019 90.5855 48.8252 90.6216 48.9847 90.6707C49.0338 90.6858 49.1061 90.7078 49.1602 90.7249C49.3177 90.773 49.4851 90.8252 49.6847 90.8883C49.773 90.9154 49.8783 90.9495 49.9706 90.9796C50.1651 91.0428 50.3657 91.105 50.5873 91.1792C50.7157 91.2213 50.8631 91.2724 50.9995 91.3166C51.2182 91.3888 51.4358 91.462 51.6725 91.5412C51.8329 91.5964 52.0094 91.6576 52.1789 91.7167C52.4136 91.799 52.6503 91.8812 52.901 91.9695C53.0926 92.0367 53.2932 92.1119 53.4928 92.1841C53.7395 92.2743 53.9902 92.3656 54.2479 92.4629C54.4605 92.5421 54.6762 92.6243 54.8938 92.7086C55.1525 92.8079 55.4123 92.9082 55.6741 93.0125C55.9017 93.1027 56.1324 93.195 56.361 93.2893C56.6248 93.3956 56.8896 93.5049 57.1533 93.6162C57.388 93.7155 57.6217 93.8158 57.8584 93.9191C58.1221 94.0324 58.3869 94.1497 58.6486 94.2681C58.8853 94.3764 59.12 94.4857 59.3587 94.595C59.6174 94.7164 59.8752 94.8407 60.1299 94.9651C60.3636 95.0784 60.5973 95.1958 60.8259 95.3121C61.0776 95.4405 61.3234 95.5708 61.5671 95.7032C61.7907 95.8246 62.0123 95.9439 62.228 96.0673C62.4656 96.2017 62.6963 96.3401 62.926 96.4775C63.1326 96.6019 63.3362 96.7272 63.5337 96.8536C63.7554 96.996 63.965 97.1414 64.1746 97.2868C64.3571 97.4142 64.5397 97.5415 64.7122 97.6699C64.9127 97.8194 65.0953 97.9728 65.2778 98.1252C65.4322 98.2536 65.5897 98.381 65.7311 98.5104C65.7772 98.5535 65.8153 98.5986 65.8615 98.6417C60.6473 105.114 52.9533 108.806 44.604 108.806H44.6039ZM44.6039 54.1766C59.6654 54.1766 71.9187 66.4301 71.9187 81.4914C71.9187 87.0172 70.297 92.2876 67.2162 96.8166C67.0637 96.6792 66.8912 96.5458 66.7268 96.4104C66.6024 96.3071 66.4841 96.2008 66.3527 96.0985C66.119 95.916 65.8663 95.7374 65.6126 95.5579C65.5043 95.4817 65.404 95.4035 65.2936 95.3292C64.9256 95.0795 64.5405 94.8318 64.1433 94.5921C64.0159 94.5159 63.8826 94.4427 63.7522 94.3665C63.4724 94.202 63.1916 94.0365 62.9027 93.8771C62.7272 93.7808 62.5477 93.6885 62.3692 93.5943C62.1175 93.4609 61.8678 93.3265 61.61 93.1961C61.4124 93.0968 61.2119 93.0015 61.0143 92.9023C60.7706 92.7829 60.5259 92.6626 60.2802 92.5472C60.0736 92.451 59.868 92.3587 59.6614 92.2644C59.4187 92.1531 59.176 92.0428 58.9323 91.9365C58.7227 91.8432 58.5161 91.7549 58.3065 91.6657C58.0668 91.5634 57.8301 91.4631 57.5924 91.3648C57.3828 91.2775 57.1772 91.1943 56.9706 91.1101C56.7359 91.0158 56.5033 90.9225 56.2726 90.8313C56.07 90.752 55.8724 90.6758 55.6749 90.5996C55.4472 90.5113 55.2246 90.4271 55.0039 90.3449C54.8094 90.2727 54.6188 90.2014 54.4302 90.1322C54.2126 90.053 54.006 89.9768 53.7964 89.9036C53.6169 89.8404 53.4404 89.7762 53.2659 89.715C53.0593 89.6428 52.8657 89.5756 52.6712 89.5094C52.5127 89.4543 52.3522 89.3981 52.2008 89.348C52.0062 89.2818 51.8267 89.2236 51.6452 89.1624C51.5138 89.1193 51.3754 89.0722 51.251 89.0341C51.0625 88.9729 50.896 88.9187 50.7255 88.8646C50.6312 88.8345 50.5279 88.8014 50.4397 88.7733C50.197 88.6971 49.9753 88.6279 49.7868 88.5707V86.4797C54.9085 84.1149 58.2983 78.4686 58.2983 72.1684C58.2983 63.6358 52.1545 56.6956 44.6037 56.6956C37.0529 56.6956 30.9091 63.6356 30.9091 72.1684C30.9091 78.4706 34.2978 84.1169 39.4206 86.4797V88.5707C39.232 88.6289 39.0114 88.6961 38.7677 88.7733C38.6774 88.8014 38.5741 88.8345 38.4818 88.8646C38.3124 88.9187 38.1449 88.9729 37.9563 89.0341C37.832 89.0742 37.6946 89.1213 37.5622 89.1624C37.3806 89.2226 37.2011 89.2818 37.0066 89.348C36.8541 89.3991 36.6947 89.4543 36.5362 89.5094C36.3396 89.5756 36.1471 89.6428 35.9415 89.715C35.769 89.7762 35.5925 89.8394 35.411 89.9036C35.2014 89.9788 34.9948 90.053 34.7771 90.1322C34.5886 90.2014 34.398 90.2717 34.2035 90.3449C33.9818 90.4291 33.7582 90.5123 33.5295 90.6006C33.3349 90.6758 33.1384 90.752 32.9408 90.8293C32.7041 90.9225 32.4674 91.0168 32.2267 91.1141C32.0242 91.1963 31.8236 91.2776 31.622 91.3628C31.3793 91.4631 31.1366 91.5664 30.8929 91.6717C30.6873 91.7589 30.4857 91.8452 30.2801 91.9364C30.0304 92.0458 29.7817 92.1601 29.531 92.2734C29.3314 92.3647 29.1328 92.4549 28.9352 92.5472C28.6775 92.6686 28.4217 92.7939 28.165 92.9203C27.9775 93.0136 27.7909 93.1028 27.6044 93.1971C27.3306 93.3345 27.0638 93.4789 26.7961 93.6213C26.6346 93.7085 26.4681 93.7918 26.3097 93.88C25.9827 94.0595 25.6688 94.2441 25.3559 94.4296C25.2616 94.4848 25.1624 94.5389 25.0711 94.5941C24.6699 94.8378 24.2818 95.0865 23.9087 95.3402C23.8215 95.3984 23.7453 95.4596 23.66 95.5198C23.3812 95.7143 23.1054 95.9109 22.8487 96.1115C22.7303 96.2047 22.625 96.299 22.5117 96.3913C22.3362 96.5347 22.1537 96.6771 21.9902 96.8245C18.9093 92.2953 17.2877 87.0252 17.2877 81.5001C17.2907 66.4296 29.5441 54.1776 44.6051 54.1776L44.6039 54.1766Z" fill="black"/>
<path id="Vector_2" d="M38.5884 125.1C38.5884 123.249 37.082 121.742 35.2307 121.742C33.3794 121.742 31.873 123.249 31.873 125.1C31.873 126.951 33.3794 128.458 35.2307 128.458C37.0821 128.458 38.5884 126.951 38.5884 125.1ZM32.6202 125.1C32.6202 123.662 33.7896 122.491 35.2287 122.491C36.6678 122.491 37.8372 123.663 37.8372 125.1C37.8372 126.538 36.6678 127.708 35.2287 127.708C33.7905 127.708 32.6202 126.538 32.6202 125.1Z" fill="black"/>
<path id="Vector_3" d="M5.69946 34.2227L4.21719 37.2304L0.896484 37.7128L3.29844 40.0535L2.7308 43.3581L5.69746 41.7976L8.66591 43.3581L8.10028 40.0525L10.5012 37.7118L7.18566 37.2294L5.69946 34.2227ZM7.29809 39.7909L7.67417 41.9892L5.70046 40.9512L3.72776 41.9872L4.10486 39.7889L2.50723 38.2314L4.71663 37.9104L5.70246 35.9107L6.69133 37.9104L8.89772 38.2314L7.29809 39.7909Z" fill="black"/>
<path id="Vector_4" d="M33.2765 9.08747L35.3234 8.01037L37.3733 9.08747L36.9812 6.80689L38.639 5.19121L36.3474 4.85724L35.3214 2.78125L34.2974 4.85724L32.0078 5.19121L33.6646 6.80689L33.2765 9.08747ZM33.6175 5.71183L34.7959 5.54134L35.3234 4.47324L35.8519 5.54134L37.0323 5.71183L36.1789 6.54424L36.3815 7.71963L35.3254 7.16502L34.2723 7.71963L34.4729 6.54524L33.6175 5.71183Z" fill="black"/>
<path id="Vector_5" d="M120.062 94.5115L121.719 96.1272L121.328 98.4077L123.377 97.3306L125.426 98.4077L125.035 96.1272L126.692 94.5115L124.402 94.1775L123.376 92.1035L122.35 94.1775L120.062 94.5115ZM123.378 93.7934L123.907 94.8615L125.085 95.032L124.233 95.8644L124.433 97.0398L123.379 96.4852L122.325 97.0398L122.526 95.8644L121.673 95.032L122.852 94.8615L123.378 93.7934Z" fill="black"/>
<path id="Vector_6" d="M123.381 13.7383L122.03 17.8972H117.658L121.193 20.4688L119.844 24.6257L123.381 22.0552L126.917 24.6257L125.568 20.4688L129.102 17.8983H124.731L123.381 13.7383ZM124.686 20.183L125.492 22.6662L123.38 21.1308L121.267 22.6662L122.072 20.183L119.959 18.6466H122.572L123.38 16.1634L124.185 18.6466H126.799L124.686 20.183Z" fill="black"/>
<path id="Vector_7" d="M111.465 0.457031C109.614 0.457031 108.107 1.96339 108.107 3.8147C108.107 5.66604 109.614 7.17237 111.465 7.17237C113.316 7.17237 114.823 5.66602 114.823 3.8147C114.823 1.96436 113.316 0.457031 111.465 0.457031ZM111.465 6.42423C110.026 6.42423 108.857 5.25284 108.857 3.81573C108.857 2.37756 110.026 1.20723 111.465 1.20723C112.904 1.20723 114.074 2.37862 114.074 3.81573C114.074 5.25289 112.904 6.42423 111.465 6.42423Z" fill="black"/>
<path id="Vector_8" d="M123.004 65.9326C123.004 67.4078 124.203 68.6073 125.679 68.6073C127.154 68.6073 128.353 67.4078 128.353 65.9326C128.353 64.4573 127.154 63.2578 125.679 63.2578C124.203 63.2578 123.004 64.4573 123.004 65.9326ZM125.679 64.007C126.741 64.007 127.604 64.8715 127.604 65.9326C127.604 66.9946 126.74 67.8581 125.679 67.8581C124.617 67.8581 123.753 66.9936 123.753 65.9326C123.752 64.8715 124.617 64.007 125.679 64.007Z" fill="black"/>
<path id="Vector_9" d="M15.3527 21.7968C17.3023 21.7968 18.887 20.2112 18.887 18.2607C18.887 16.3111 17.3014 14.7246 15.3527 14.7246C13.4039 14.7246 11.8184 16.3102 11.8184 18.2607C11.8184 20.2104 13.4029 21.7968 15.3527 21.7968ZM15.3527 15.4735C16.8881 15.4735 18.1388 16.7241 18.1388 18.2605C18.1388 19.7969 16.8882 21.0474 15.3527 21.0474C13.8172 21.0474 12.5665 19.7968 12.5665 18.2605C12.5675 16.724 13.8181 15.4735 15.3527 15.4735Z" fill="black"/>
<path id="Vector_10" d="M27.3553 125.467L27.5017 124.733C27.0153 124.636 26.5339 124.528 26.0595 124.408L25.875 125.133C26.3624 125.256 26.8568 125.367 27.3553 125.467H27.3553Z" fill="black"/>
<path id="Vector_11" d="M13.3712 117.606C12.6551 116.954 11.9661 116.262 11.3212 115.547L10.7656 116.048C11.4275 116.782 12.1346 117.492 12.8687 118.16L13.3712 117.606Z" fill="black"/>
<path id="Vector_12" d="M7.86651 110.881L7.22266 111.266C7.7271 112.109 8.28272 112.944 8.87644 113.743L9.47819 113.298C8.90052 112.517 8.35794 111.703 7.86654 110.881L7.86651 110.881Z" fill="black"/>
<path id="Vector_13" d="M2.90625 95.6882C2.90625 96.1796 2.91829 96.668 2.94035 97.1544L3.68952 97.1183C3.66545 96.6439 3.65542 96.1675 3.65542 95.6882C3.65542 95.1967 3.66746 94.7053 3.69153 94.2119L2.94235 94.1758C2.91628 94.6802 2.90625 95.1857 2.90625 95.6881V95.6882Z" fill="black"/>
<path id="Vector_14" d="M20.2676 123.122C21.1672 123.547 22.0949 123.933 23.0234 124.265L23.2752 123.56C22.3706 123.236 21.4659 122.86 20.5894 122.445L20.2676 123.122Z" fill="black"/>
<path id="Vector_15" d="M6.49789 108.318C6.08769 107.447 5.71261 106.543 5.38668 105.635L4.68164 105.887C5.01761 106.82 5.39872 107.746 5.82294 108.638L6.49789 108.318Z" fill="black"/>
<path id="Vector_16" d="M18.0283 121.074C17.1999 120.576 16.3885 120.032 15.6143 119.455L15.166 120.056C15.9593 120.648 16.7937 121.206 17.6412 121.716L18.0283 121.074Z" fill="black"/>
<path id="Vector_17" d="M3.23242 100.115C3.37884 101.101 3.5754 102.083 3.8151 103.036L4.54019 102.853C4.30651 101.923 4.11597 100.966 3.97256 100.006L3.23242 100.115Z" fill="black"/>
<path id="Vector_18" d="M3.24024 91.1877L3.98037 91.297C4.05358 90.8117 4.13582 90.3263 4.23511 89.8398L3.50098 89.6914C3.40069 90.1898 3.31344 90.6883 3.24023 91.1877L3.24024 91.1877Z" fill="black"/>
<path id="Vector_19" d="M127.346 106.408L126.597 106.395C126.588 106.889 126.56 107.378 126.516 107.864L127.262 107.93C127.308 107.426 127.337 106.919 127.346 106.408L127.346 106.408Z" fill="black"/>
<path id="Vector_20" d="M119.161 121.691C118.333 122.369 117.445 122.987 116.523 123.526L116.901 124.173C117.857 123.614 118.777 122.974 119.634 122.27L119.161 121.691Z" fill="black"/>
<path id="Vector_21" d="M122.034 119.964C122.774 119.133 123.449 118.239 124.046 117.308L123.414 116.904C122.841 117.802 122.189 118.664 121.477 119.466L122.034 119.964Z" fill="black"/>
<path id="Vector_22" d="M124.928 114.073L125.615 114.37C126.058 113.349 126.42 112.288 126.695 111.219L125.97 111.033C125.707 112.065 125.355 113.088 124.928 114.073V114.073Z" fill="black"/>
<path id="Vector_23" d="M110.71 126.573C111.793 126.342 112.866 126.021 113.903 125.62L113.63 124.922C112.633 125.308 111.599 125.617 110.555 125.84L110.71 126.573Z" fill="black"/>
<path id="Vector_24" d="M105.873 127.027C106.016 127.03 106.161 127.031 106.304 127.031C106.669 127.031 107.035 127.022 107.397 127.003L107.36 126.256C106.872 126.28 106.38 126.287 105.888 126.278L105.873 127.027Z" fill="black"/>
<path id="Vector_25" d="M125.305 53.0391H126.054V56.0347H125.305V53.0391Z" fill="black"/>
<path id="Vector_26" d="M125.305 47.0508H126.054V50.0464H125.305V47.0508Z" fill="black"/>
<path id="Vector_27" d="M125.305 41.0605H126.054V44.0562H125.305V41.0605Z" fill="black"/>
<path id="Vector_28" d="M125.305 35.0684H126.054V38.064H125.305V35.0684Z" fill="black"/>
</g>
</svg>
