<svg width="116" height="129" viewBox="0 0 116 129" fill="none" xmlns="http://www.w3.org/2000/svg">
<g id="Group">
<g id="Vector">
<mask id="path-1-inside-1_640_27398" fill="white">
<path d="M113.467 81.5237C114.033 81.5237 114.576 81.2989 114.976 80.8989C115.376 80.4989 115.601 79.9561 115.601 79.3904V32.4571C115.597 29.6293 114.472 26.9179 112.473 24.918C110.473 22.9189 107.762 21.7943 104.934 21.7904H102.692C102.155 15.9638 99.4637 10.5476 95.1427 6.60179C90.8226 2.65597 85.1855 0.464616 79.3341 0.457057H75.0674C68.0828 0.446581 61.4636 3.58074 57.0445 8.99039H51.6007C50.4227 8.99039 49.4674 9.94563 49.4674 11.1237V17.5237C49.4665 21.3467 51.1769 24.9684 54.1283 27.397C52.5426 28.5961 51.6073 30.4685 51.6007 32.4571V36.7237C51.6007 38.4208 52.275 40.0495 53.475 41.2493C54.675 42.4491 56.3037 43.1236 58.0006 43.1236H60.134C60.1368 48.0293 62.2568 52.6951 65.9493 55.9236H62.2673C59.4396 55.9274 56.7282 57.0522 54.7282 59.0512C52.7292 61.0512 51.6045 63.7626 51.6006 66.5903V83.6569C51.6006 84.835 52.5559 85.7903 53.734 85.7903C54.912 85.7903 55.8673 84.835 55.8673 83.6569V66.5903C55.8673 64.8931 56.5416 63.2644 57.7416 62.0647C58.9416 60.8649 60.5703 60.1904 62.2672 60.1904H68.6672C68.6672 63.239 70.2938 66.0562 72.9338 67.5807C75.5738 69.1045 78.8272 69.1045 81.4672 67.5807C84.1071 66.056 85.7338 63.2387 85.7338 60.1904H92.1338C93.831 60.1904 95.4596 60.8647 96.6594 62.0647C97.8592 63.2647 98.5337 64.8933 98.5337 66.5903V90.0569H92.1337V77.2569C92.1337 76.0788 91.1785 75.1236 90.0004 75.1236C88.8223 75.1236 87.867 76.0788 87.867 77.2569V90.0569H66.5337V77.2569C66.5337 76.0788 65.5785 75.1236 64.4004 75.1236C63.2223 75.1236 62.267 76.0788 62.267 77.2569V90.0569H17.4671C16.289 90.0569 15.3337 91.0122 15.3337 92.1903C15.3337 93.3683 16.289 94.3236 17.4671 94.3236H98.5337V98.5902H11.0671C9.36992 98.5902 7.74125 97.916 6.54146 96.716C5.34168 95.516 4.66718 93.8873 4.66718 92.1904V43.1237H38.8005V68.7237H11.0672C9.88909 68.7237 8.93385 69.679 8.93385 70.857C8.93385 72.0351 9.88909 72.9904 11.0672 72.9904H40.9338C41.4995 72.9904 42.0424 72.7656 42.4424 72.3656C42.8424 71.9656 43.0672 71.4228 43.0672 70.857V40.9904C43.0672 40.4247 42.8424 39.8818 42.4424 39.4818C42.0424 39.0818 41.4995 38.857 40.9338 38.857H4.66718V32.4571C4.66718 30.7599 5.34146 29.1312 6.54146 27.9315C7.74147 26.7317 9.37014 26.0572 11.0671 26.0572C12.2451 26.0572 13.2004 25.1019 13.2004 23.9238C13.2004 22.7458 12.2451 21.7905 11.0671 21.7905C8.23935 21.7943 5.52795 22.9191 3.52798 24.9181C1.52894 26.9181 0.404292 29.6295 0.400391 32.4572V92.1905C0.4042 95.0182 1.52896 97.7296 3.52798 99.7296C5.52797 101.729 8.23935 102.853 11.0671 102.857H35.349L28.949 115.657H17.4671C15.7699 115.657 14.1412 116.331 12.9415 117.531C11.7417 118.731 11.0672 120.36 11.0672 122.057V126.324C11.0672 126.889 11.2919 127.432 11.6919 127.832C12.0919 128.232 12.6348 128.457 13.2005 128.457H102.8C103.366 128.457 103.909 128.232 104.309 127.832C104.709 127.432 104.934 126.889 104.934 126.324V122.057C104.934 120.36 104.26 118.731 103.06 117.531C101.86 116.332 100.231 115.657 98.534 115.657H87.052L80.652 102.857H104.934C107.762 102.853 110.473 101.729 112.473 99.7296C114.472 97.7296 115.597 95.0182 115.601 92.1905V87.9238C115.601 86.7457 114.645 85.7905 113.467 85.7905C112.289 85.7905 111.334 86.7457 111.334 87.9238V92.1905C111.334 93.8876 110.66 95.5163 109.46 96.7161C108.26 97.9159 106.631 98.5904 104.934 98.5904H102.801V66.5904C102.797 63.7627 101.672 61.0513 99.6731 59.0513C97.6732 57.0523 94.9618 55.9276 92.1341 55.9237H88.4521C89.5616 54.9542 90.5416 53.8456 91.3683 52.6257L91.7225 52.6828C93.9892 53.0609 96.312 52.5086 98.1655 51.1505C100.02 49.7933 101.247 47.7447 101.572 45.4704L102.611 38.202C102.686 37.8858 102.801 36.8048 102.801 36.7086V26.0571H104.934C106.631 26.0571 108.26 26.7314 109.46 27.9314C110.659 29.1314 111.334 30.7601 111.334 32.457V79.3903C111.334 79.956 111.559 80.4989 111.959 80.8989C112.359 81.2989 112.902 81.5236 113.467 81.5236L113.467 81.5237ZM100.667 122.057V124.19H15.3342V122.057C15.3342 120.879 16.2894 119.924 17.4675 119.924H98.5341C99.0999 119.924 99.6427 120.148 100.043 120.548C100.443 120.948 100.667 121.491 100.667 122.057ZM82.2828 115.657H33.7184L40.1184 102.857H75.8828L82.2828 115.657ZM96.4008 38.857H94.2675V30.3237H96.4008C96.9665 30.3237 97.5094 30.5485 97.9094 30.9485C98.3094 31.3485 98.5341 31.8913 98.5341 32.4571V36.5743L98.4618 37.0819C98.2999 38.0981 97.4294 38.8476 96.4008 38.8571L96.4008 38.857ZM75.0675 4.72372H79.3341C84.4246 4.72944 89.3047 6.75419 92.9046 10.3533C96.5037 13.9534 98.5283 18.8332 98.5341 23.9237V26.4493C97.8513 26.1969 97.1294 26.0636 96.4008 26.057H94.2675V21.7903C94.2637 18.3969 92.9141 15.1426 90.515 12.7428C88.115 10.3437 84.8608 8.99419 81.4675 8.99029H63.0379C66.4342 6.22183 70.6855 4.71412 75.0675 4.72363V4.72372ZM53.7342 13.2571H81.4675C83.7303 13.2571 85.9009 14.1561 87.5018 15.7561C89.1018 17.3571 90.0008 19.5276 90.0008 21.7904V26.0571H62.2675C60.0046 26.0571 57.8341 25.158 56.2332 23.558C54.6332 21.9571 53.7342 19.7865 53.7342 17.5237V13.2571ZM58.0008 38.857C56.8227 38.857 55.8675 37.9018 55.8675 36.7237V32.4571C55.8675 31.279 56.8227 30.3237 58.0008 30.3237H60.1342V38.857H58.0008ZM77.2008 64.457C76.0694 64.457 74.9837 64.0075 74.1837 63.2075C73.3837 62.4075 72.9342 61.3218 72.9342 60.1904V59.6294C75.7294 60.377 78.6722 60.377 81.4675 59.6294V60.1904C81.4675 61.3218 81.0179 62.4075 80.218 63.2075C79.418 64.0075 78.3322 64.457 77.2008 64.457ZM77.2008 55.9237C73.8075 55.9199 70.5531 54.5704 68.1533 52.1712C65.7542 49.7712 64.4047 46.5171 64.4008 43.1237V30.3237H90.0008V43.1237C89.9999 44.7666 89.6808 46.3932 89.0618 47.9151L86.0751 47.4198C84.9284 47.257 83.8608 48.0379 83.6703 49.1798C83.4789 50.3227 84.2341 51.4084 85.3713 51.6274L86.5513 51.8236C84.1418 54.4331 80.7523 55.9189 77.2007 55.9235L77.2008 55.9237ZM95.6455 47.7103C94.9855 48.195 94.1979 48.476 93.3798 48.5188C93.9655 46.7798 94.2645 44.958 94.2674 43.1236H96.4007C96.8083 43.1217 97.215 43.0807 97.615 43.0017L97.3483 44.8683C97.1893 46.0074 96.575 47.0331 95.6455 47.7102L95.6455 47.7103Z"/>
</mask>
<path d="M113.467 81.5237C114.033 81.5237 114.576 81.2989 114.976 80.8989C115.376 80.4989 115.601 79.9561 115.601 79.3904V32.4571C115.597 29.6293 114.472 26.9179 112.473 24.918C110.473 22.9189 107.762 21.7943 104.934 21.7904H102.692C102.155 15.9638 99.4637 10.5476 95.1427 6.60179C90.8226 2.65597 85.1855 0.464616 79.3341 0.457057H75.0674C68.0828 0.446581 61.4636 3.58074 57.0445 8.99039H51.6007C50.4227 8.99039 49.4674 9.94563 49.4674 11.1237V17.5237C49.4665 21.3467 51.1769 24.9684 54.1283 27.397C52.5426 28.5961 51.6073 30.4685 51.6007 32.4571V36.7237C51.6007 38.4208 52.275 40.0495 53.475 41.2493C54.675 42.4491 56.3037 43.1236 58.0006 43.1236H60.134C60.1368 48.0293 62.2568 52.6951 65.9493 55.9236H62.2673C59.4396 55.9274 56.7282 57.0522 54.7282 59.0512C52.7292 61.0512 51.6045 63.7626 51.6006 66.5903V83.6569C51.6006 84.835 52.5559 85.7903 53.734 85.7903C54.912 85.7903 55.8673 84.835 55.8673 83.6569V66.5903C55.8673 64.8931 56.5416 63.2644 57.7416 62.0647C58.9416 60.8649 60.5703 60.1904 62.2672 60.1904H68.6672C68.6672 63.239 70.2938 66.0562 72.9338 67.5807C75.5738 69.1045 78.8272 69.1045 81.4672 67.5807C84.1071 66.056 85.7338 63.2387 85.7338 60.1904H92.1338C93.831 60.1904 95.4596 60.8647 96.6594 62.0647C97.8592 63.2647 98.5337 64.8933 98.5337 66.5903V90.0569H92.1337V77.2569C92.1337 76.0788 91.1785 75.1236 90.0004 75.1236C88.8223 75.1236 87.867 76.0788 87.867 77.2569V90.0569H66.5337V77.2569C66.5337 76.0788 65.5785 75.1236 64.4004 75.1236C63.2223 75.1236 62.267 76.0788 62.267 77.2569V90.0569H17.4671C16.289 90.0569 15.3337 91.0122 15.3337 92.1903C15.3337 93.3683 16.289 94.3236 17.4671 94.3236H98.5337V98.5902H11.0671C9.36992 98.5902 7.74125 97.916 6.54146 96.716C5.34168 95.516 4.66718 93.8873 4.66718 92.1904V43.1237H38.8005V68.7237H11.0672C9.88909 68.7237 8.93385 69.679 8.93385 70.857C8.93385 72.0351 9.88909 72.9904 11.0672 72.9904H40.9338C41.4995 72.9904 42.0424 72.7656 42.4424 72.3656C42.8424 71.9656 43.0672 71.4228 43.0672 70.857V40.9904C43.0672 40.4247 42.8424 39.8818 42.4424 39.4818C42.0424 39.0818 41.4995 38.857 40.9338 38.857H4.66718V32.4571C4.66718 30.7599 5.34146 29.1312 6.54146 27.9315C7.74147 26.7317 9.37014 26.0572 11.0671 26.0572C12.2451 26.0572 13.2004 25.1019 13.2004 23.9238C13.2004 22.7458 12.2451 21.7905 11.0671 21.7905C8.23935 21.7943 5.52795 22.9191 3.52798 24.9181C1.52894 26.9181 0.404292 29.6295 0.400391 32.4572V92.1905C0.4042 95.0182 1.52896 97.7296 3.52798 99.7296C5.52797 101.729 8.23935 102.853 11.0671 102.857H35.349L28.949 115.657H17.4671C15.7699 115.657 14.1412 116.331 12.9415 117.531C11.7417 118.731 11.0672 120.36 11.0672 122.057V126.324C11.0672 126.889 11.2919 127.432 11.6919 127.832C12.0919 128.232 12.6348 128.457 13.2005 128.457H102.8C103.366 128.457 103.909 128.232 104.309 127.832C104.709 127.432 104.934 126.889 104.934 126.324V122.057C104.934 120.36 104.26 118.731 103.06 117.531C101.86 116.332 100.231 115.657 98.534 115.657H87.052L80.652 102.857H104.934C107.762 102.853 110.473 101.729 112.473 99.7296C114.472 97.7296 115.597 95.0182 115.601 92.1905V87.9238C115.601 86.7457 114.645 85.7905 113.467 85.7905C112.289 85.7905 111.334 86.7457 111.334 87.9238V92.1905C111.334 93.8876 110.66 95.5163 109.46 96.7161C108.26 97.9159 106.631 98.5904 104.934 98.5904H102.801V66.5904C102.797 63.7627 101.672 61.0513 99.6731 59.0513C97.6732 57.0523 94.9618 55.9276 92.1341 55.9237H88.4521C89.5616 54.9542 90.5416 53.8456 91.3683 52.6257L91.7225 52.6828C93.9892 53.0609 96.312 52.5086 98.1655 51.1505C100.02 49.7933 101.247 47.7447 101.572 45.4704L102.611 38.202C102.686 37.8858 102.801 36.8048 102.801 36.7086V26.0571H104.934C106.631 26.0571 108.26 26.7314 109.46 27.9314C110.659 29.1314 111.334 30.7601 111.334 32.457V79.3903C111.334 79.956 111.559 80.4989 111.959 80.8989C112.359 81.2989 112.902 81.5236 113.467 81.5236L113.467 81.5237ZM100.667 122.057V124.19H15.3342V122.057C15.3342 120.879 16.2894 119.924 17.4675 119.924H98.5341C99.0999 119.924 99.6427 120.148 100.043 120.548C100.443 120.948 100.667 121.491 100.667 122.057ZM82.2828 115.657H33.7184L40.1184 102.857H75.8828L82.2828 115.657ZM96.4008 38.857H94.2675V30.3237H96.4008C96.9665 30.3237 97.5094 30.5485 97.9094 30.9485C98.3094 31.3485 98.5341 31.8913 98.5341 32.4571V36.5743L98.4618 37.0819C98.2999 38.0981 97.4294 38.8476 96.4008 38.8571L96.4008 38.857ZM75.0675 4.72372H79.3341C84.4246 4.72944 89.3047 6.75419 92.9046 10.3533C96.5037 13.9534 98.5283 18.8332 98.5341 23.9237V26.4493C97.8513 26.1969 97.1294 26.0636 96.4008 26.057H94.2675V21.7903C94.2637 18.3969 92.9141 15.1426 90.515 12.7428C88.115 10.3437 84.8608 8.99419 81.4675 8.99029H63.0379C66.4342 6.22183 70.6855 4.71412 75.0675 4.72363V4.72372ZM53.7342 13.2571H81.4675C83.7303 13.2571 85.9009 14.1561 87.5018 15.7561C89.1018 17.3571 90.0008 19.5276 90.0008 21.7904V26.0571H62.2675C60.0046 26.0571 57.8341 25.158 56.2332 23.558C54.6332 21.9571 53.7342 19.7865 53.7342 17.5237V13.2571ZM58.0008 38.857C56.8227 38.857 55.8675 37.9018 55.8675 36.7237V32.4571C55.8675 31.279 56.8227 30.3237 58.0008 30.3237H60.1342V38.857H58.0008ZM77.2008 64.457C76.0694 64.457 74.9837 64.0075 74.1837 63.2075C73.3837 62.4075 72.9342 61.3218 72.9342 60.1904V59.6294C75.7294 60.377 78.6722 60.377 81.4675 59.6294V60.1904C81.4675 61.3218 81.0179 62.4075 80.218 63.2075C79.418 64.0075 78.3322 64.457 77.2008 64.457ZM77.2008 55.9237C73.8075 55.9199 70.5531 54.5704 68.1533 52.1712C65.7542 49.7712 64.4047 46.5171 64.4008 43.1237V30.3237H90.0008V43.1237C89.9999 44.7666 89.6808 46.3932 89.0618 47.9151L86.0751 47.4198C84.9284 47.257 83.8608 48.0379 83.6703 49.1798C83.4789 50.3227 84.2341 51.4084 85.3713 51.6274L86.5513 51.8236C84.1418 54.4331 80.7523 55.9189 77.2007 55.9235L77.2008 55.9237ZM95.6455 47.7103C94.9855 48.195 94.1979 48.476 93.3798 48.5188C93.9655 46.7798 94.2645 44.958 94.2674 43.1236H96.4007C96.8083 43.1217 97.215 43.0807 97.615 43.0017L97.3483 44.8683C97.1893 46.0074 96.575 47.0331 95.6455 47.7102L95.6455 47.7103Z" fill="#333745" stroke="white" stroke-width="2" mask="url(#path-1-inside-1_640_27398)"/>
</g>
<path id="Vector_2" d="M15.3274 63.9566C14.8968 63.9547 14.484 63.7828 14.1795 63.4782C13.8733 63.1721 13.7012 62.7564 13.7012 62.3232V49.5232C13.7012 48.9569 13.9938 48.4306 14.4752 48.1335L14.476 48.133C14.9568 47.835 15.5582 47.8079 16.0642 48.0609L16.0642 48.0609L28.8642 54.4609L28.8649 54.4613C29.4197 54.7375 29.7697 55.304 29.7697 55.9232C29.7697 56.5424 29.4197 57.1089 28.8649 57.3852L28.8642 57.3855L16.0648 63.7852L15.3274 63.9566ZM15.3274 63.9566H15.3345C15.588 63.9566 15.838 63.8981 16.0642 63.7855L15.3274 63.9566ZM17.6914 52.5274L16.9678 52.1655V52.9746V58.8719V59.6809L17.6914 59.319L23.5877 56.3704L24.482 55.9232L23.5877 55.476L17.6914 52.5274Z" fill="#333745" stroke="white"/>
<path id="Vector_3" d="M37.3878 24.6417C37.3878 24.6416 37.3878 24.6416 37.3879 24.6416C38.895 23.1354 40.9384 22.2891 43.0685 22.2891C43.9704 22.2891 44.7018 23.0205 44.7018 23.9224C44.7018 24.8243 43.9704 25.5557 43.0685 25.5557C41.8045 25.5557 40.5916 26.0579 39.6978 26.9517C38.804 27.8455 38.3018 29.0584 38.3018 30.3224C38.3018 31.2243 37.5704 31.9557 36.6685 31.9557C35.7665 31.9557 35.0352 31.2243 35.0352 30.3224C35.0352 28.1923 35.8814 26.149 37.3877 24.6418C37.3877 24.6417 37.3877 24.6417 37.3878 24.6417Z" fill="#333745" stroke="white"/>
<path id="Vector_4" d="M26.002 30.3245C26.002 31.5026 26.9572 32.4578 28.1353 32.4578C29.3134 32.4578 30.2686 31.5026 30.2686 30.3245C30.2724 26.9311 31.622 23.6768 34.0211 21.2769C36.4211 18.8779 39.6753 17.5284 43.0686 17.5245C44.2467 17.5245 45.2019 16.5692 45.2019 15.3911C45.2019 14.2131 44.2467 13.2578 43.0686 13.2578M26.002 30.3245L26.502 30.325C26.502 30.3249 26.502 30.3248 26.502 30.3247M26.002 30.3245C26.0066 25.7996 27.8066 21.4615 31.0066 18.2625C34.2057 15.0626 38.5438 13.2626 43.0686 13.2578M26.002 30.3245H26.502C26.502 30.3246 26.502 30.3246 26.502 30.3247M26.502 30.3247C26.5021 31.2265 27.2334 31.9578 28.1353 31.9578C29.0372 31.9578 29.7686 31.2264 29.7686 30.3245V30.3239C29.7726 26.7982 31.1747 23.4169 33.6675 20.9234L33.6676 20.9233C36.1613 18.4307 39.5423 17.0285 43.068 17.0245L43.0686 17.0245C43.9706 17.0245 44.7019 16.2931 44.7019 15.3911C44.7019 14.4893 43.9707 13.758 43.0689 13.7578M26.502 30.3247C26.5065 25.9324 28.2539 21.7214 31.3601 18.6161L31.3602 18.616C34.4655 15.5098 38.6766 13.7625 43.0689 13.7578M43.0689 13.7578C43.069 13.7578 43.0691 13.7578 43.0691 13.7578L43.0686 13.2578M43.0689 13.7578C43.0688 13.7578 43.0687 13.7578 43.0686 13.7578V13.2578" fill="#333745" stroke="white"/>
<path id="Vector_5" d="M21.2354 30.3226V30.3221C21.2422 24.5336 23.5444 18.9838 27.637 14.891C31.7297 10.7981 37.2797 8.49606 43.0682 8.48932L43.0687 8.48932C43.9707 8.48932 44.7021 7.75793 44.7021 6.85599C44.7021 5.95413 43.9708 5.22279 43.069 5.22266C36.4139 5.23021 30.0344 7.87666 25.328 12.5818C25.328 12.5819 25.328 12.5819 25.3279 12.5819M21.2354 30.3226H17.4688C17.4763 23.535 20.1753 17.0285 24.9744 12.2283L25.3279 12.5819M21.2354 30.3226C21.2354 30.7558 21.0633 31.1715 20.7571 31.4777L21.1107 31.8312L20.7571 31.4777C20.4509 31.7839 20.0352 31.956 19.6021 31.956C19.1689 31.956 18.7533 31.7839 18.4471 31.4777C18.1409 31.1715 17.9688 30.756 17.9688 30.3229M21.2354 30.3226L17.9688 30.3229M25.3279 12.5819C20.6225 17.2883 17.9762 23.6678 17.9688 30.3229M25.3279 12.5819L17.9688 30.3229" fill="#333745" stroke="white"/>
<path id="Vector_6" d="M70.2999 36.7232C70.2999 37.6251 69.5685 38.3565 68.6665 38.3565C67.7646 38.3565 67.0332 37.6251 67.0332 36.7232C67.0332 35.8212 67.7646 35.0898 68.6665 35.0898C69.5685 35.0898 70.2999 35.8212 70.2999 36.7232Z" fill="#333745" stroke="white"/>
<path id="Vector_7" d="M83.1006 36.7232C83.1006 37.6251 82.3693 38.3565 81.4673 38.3565C80.5654 38.3565 79.834 37.6251 79.834 36.7232C79.834 35.8212 80.5654 35.0898 81.4673 35.0898C82.3693 35.0898 83.1006 35.8212 83.1006 36.7232Z" fill="#333745" stroke="white"/>
<path id="Vector_8" d="M75.6126 41.4915H75.7227L75.7571 41.4756C77.2621 41.2634 78.7903 41.6639 79.998 42.5882C80.6652 43.3026 81.0154 44.2564 80.9675 45.2338L80.9669 45.246V45.2583C80.9669 46.8512 80.3604 48.8903 79.2887 50.5251C78.2131 52.166 76.7464 53.2916 75.0669 53.2916C73.3874 53.2916 71.9207 52.166 70.8451 50.5251C69.7734 48.8903 69.1669 46.8512 69.1669 45.2583V45.2462L69.1663 45.2342C69.1192 44.2571 69.4698 43.3029 70.1364 42.5894C71.359 41.6463 72.9165 41.2469 74.4439 41.4856L74.5202 40.9976V41.4915H74.5211H75.6126ZM75.0007 50.0205L75.5668 50.0961V49.8483C75.5965 49.829 75.6245 49.8092 75.6509 49.7896C75.7927 49.6841 75.9305 49.5488 76.0605 49.3995C76.3212 49.1004 76.585 48.7056 76.8207 48.2686C77.2868 47.4046 77.6894 46.2888 77.7002 45.3046L77.7052 44.8402L77.2425 44.8009C76.7093 44.7556 76.1735 44.7418 75.6391 44.7582H74.495C73.9602 44.7408 73.4249 44.7547 72.8931 44.7979L72.4302 44.8355L72.4335 45.2998C72.4405 46.2861 72.8416 47.4034 73.3079 48.2682C73.5438 48.7056 73.8082 49.1008 74.07 49.4002C74.2006 49.5496 74.3391 49.685 74.4817 49.7905C74.6172 49.8907 74.795 49.993 75.0007 50.0205Z" fill="#333745" stroke="white"/>
</g>
</svg>
